<svg width="49" height="88" viewBox="0 0 49 88" fill="none" xmlns="http://www.w3.org/2000/svg">
<path d="M35.292 55.7734C35.292 59.4844 35.3408 62.9512 35.4385 66.1738C35.5361 69.3965 35.6338 72.1309 35.7314 74.377C35.9268 76.5254 36.1221 77.8438 36.3174 78.332L48.7686 80.6758L48.3291 88H2.77246L2.33301 80.6758L14.7842 78.332C14.8818 77.7461 14.9795 76.3789 15.0771 74.2305C15.1748 71.9844 15.2725 69.25 15.3701 66.0273C15.4678 62.707 15.5166 59.2891 15.5166 55.7734V39.2207C15.5166 35.4121 15.4189 31.6523 15.2236 27.9414C15.126 24.2305 14.9795 21.5938 14.7842 20.0312L1.01465 22.8145L0.428711 14.0254L36.4639 0.109375C36.1709 4.30859 35.8779 9.43555 35.585 15.4902C35.3896 21.5449 35.292 28.332 35.292 35.8516V55.7734Z" fill="#C6C6C6"/>
</svg>
