<svg width="24" height="24" viewBox="0 0 24 24" fill="none" xmlns="http://www.w3.org/2000/svg">
<path d="M6.64551 3C7.4632 3 8.19913 3.4977 8.50293 4.25684L9.31641 6.29102C9.70268 7.2567 9.28466 8.35798 8.35449 8.82324L8 9C8 9 8.5 11.5 10.5 13.5C12.5 15.5 15 16 15 16L15.1768 15.6455C15.642 14.7153 16.7433 14.2973 17.709 14.6836L19.7432 15.4971C20.5023 15.8009 21 16.5368 21 17.3545V19C21 20.1046 20.1046 21 19 21C10.1634 21 3 13.8366 3 5C3 3.89543 3.89543 3 5 3H6.64551ZM19.2002 8C20.1942 8.00011 20.9999 8.80585 21 9.7998C21 10.4625 20.4625 11 19.7998 11H15.2002C14.5375 11 14 10.4625 14 9.7998C14.0001 8.80585 14.8058 8.00011 15.7998 8H19.2002ZM17.5 3C18.6046 3 19.5 3.89543 19.5 5C19.5 6.10457 18.6046 7 17.5 7C16.3954 7 15.5 6.10457 15.5 5C15.5 3.89543 16.3954 3 17.5 3Z" fill="#FF5817"/>
</svg>
