<svg width="176" height="151" viewBox="0 0 176 151" fill="none" xmlns="http://www.w3.org/2000/svg">
<g clip-path="url(#clip0_500_10177)">
<path d="M98.5891 147.292C97.7638 147.292 97.248 146.912 97.1104 146.084C97.0073 145.394 96.8353 144.393 96.5946 143.117C96.3539 141.84 96.0444 140.253 95.7005 138.355C95.563 137.561 95.0815 137.182 94.2906 137.182H80.8793C80.0884 137.182 79.607 137.561 79.4007 138.355C79.0568 140.253 78.7817 141.84 78.541 143.117C78.3346 144.393 78.1283 145.394 77.9908 146.084C77.8876 146.878 77.4062 147.292 76.5808 147.292H67.9151C67.4337 147.292 67.021 147.119 66.7115 146.74C66.402 146.36 66.3333 145.946 66.5052 145.532C66.8835 143.807 67.5712 140.874 68.4997 136.802C69.4282 132.73 70.563 127.554 71.9041 121.309C73.3484 114.614 74.4488 109.197 75.2397 104.987C76.0306 100.812 76.5465 97.9478 76.7872 96.464C76.9247 95.6703 77.4062 95.2908 78.1971 95.2908H96.8697C97.695 95.2908 98.2108 95.6703 98.3484 96.464C98.5891 97.9478 99.1049 100.812 99.8958 104.987C100.687 109.162 101.787 114.614 103.163 121.309C104.504 127.554 105.639 132.696 106.567 136.802C107.496 140.908 108.183 143.807 108.63 145.532C108.734 145.981 108.63 146.395 108.321 146.74C108.011 147.119 107.668 147.292 107.22 147.292H98.5891ZM83.0458 129.314H92.1586C92.6056 129.314 92.9839 129.142 93.259 128.796C93.5685 128.451 93.6372 128.072 93.5685 127.589C93.3621 126.588 93.1558 125.587 92.9151 124.518C92.7088 123.448 92.4681 122.378 92.2273 121.274C91.4708 117.754 90.7831 114.58 90.1641 111.75C89.5451 108.886 88.9949 106.436 88.5135 104.366C88.4103 103.883 88.1008 103.607 87.585 103.607C87.0692 103.607 86.7253 103.848 86.5877 104.366C86.1407 106.436 85.5905 108.921 84.9715 111.75C84.3181 114.58 83.6304 117.789 82.9082 121.274C82.6675 122.378 82.4268 123.448 82.2205 124.518C82.0141 125.587 81.8078 126.623 81.6015 127.589C81.4983 128.037 81.6015 128.451 81.8766 128.796C82.1517 129.142 82.5643 129.314 83.0458 129.314Z" fill="white"/>
<mask id="mask0_500_10177" style="mask-type:luminance" maskUnits="userSpaceOnUse" x="61" y="94" width="54" height="52">
<path d="M114.53 94.1335H61.2979V145.548H114.53V94.1335Z" fill="white"/>
</mask>
<g mask="url(#mask0_500_10177)">
<path d="M87.8109 94.1335L94.1039 113.768H114.358L97.9553 125.914L104.214 145.548L87.8109 133.402L71.4423 145.548L77.7009 125.914L61.2979 113.768H81.5523L87.8109 94.1335Z" fill="#FF5817"/>
</g>
<mask id="mask1_500_10177" style="mask-type:luminance" maskUnits="userSpaceOnUse" x="61" y="94" width="54" height="52">
<path d="M113.721 94.6335V145.048H61.7979V94.6335H113.721Z" fill="white" stroke="white"/>
</mask>
<g mask="url(#mask1_500_10177)">
<mask id="mask2_500_10177" style="mask-type:luminance" maskUnits="userSpaceOnUse" x="61" y="94" width="54" height="52">
<path d="M93.5928 113.92L93.7041 114.267H112.844L97.6582 125.512L97.3701 125.725L97.4785 126.066L103.267 144.224L88.1084 133L87.8105 132.779L87.5127 133.001L72.3896 144.221L78.1777 126.066L78.2861 125.725L77.998 125.512L62.8125 114.267H81.918L82.0283 113.92L87.8105 95.7781L93.5928 113.92Z" fill="white" stroke="white"/>
</mask>
<g mask="url(#mask2_500_10177)">
<path d="M87.8113 94.1335L94.0699 113.768H114.324L97.9214 125.914L104.18 145.548L87.7769 133.402L71.3739 145.548L77.6325 125.914L61.2295 113.768H81.484L87.8113 94.1335Z" stroke="white" stroke-width="4"/>
</g>
</g>
<path d="M127.151 126.949C130.177 125.189 133.203 123.602 136.573 122.808C141.181 121.739 145.411 122.429 149.228 125.293C150.879 126.5 150.879 126.535 149.297 127.708C145.411 130.538 141.25 132.574 136.436 133.436C128.63 134.851 120.033 127.122 119.792 119.91C119.586 114.044 121.718 108.937 124.606 104.071C125.225 103.036 125.604 103.795 125.982 104.209C130.108 108.35 131.14 113.319 129.937 118.909C129.386 121.704 128.217 124.258 127.151 126.949Z" fill="#FF5817"/>
<path d="M56.0366 118.599C56.3804 127.053 46.8206 136.335 36.2635 132.781C32.5496 131.539 29.1796 129.675 26.0159 127.363C25.1906 126.742 25.1906 126.363 25.9815 125.707C30.3144 122.222 35.1287 121.566 40.3213 123.119C42.5221 123.775 44.5854 124.741 46.5799 125.879C47.1301 126.19 47.7491 127.087 48.2993 126.535C48.8151 126.052 48.0242 125.293 47.7491 124.741C46.1328 121.152 45.1012 117.425 45.4107 113.423C45.6858 109.73 47.2333 106.625 49.9155 104.071C50.4313 103.588 50.7408 103.416 51.1879 104.175C53.8701 108.592 55.8302 113.285 56.0366 118.599Z" fill="#FF5817"/>
<path d="M35.8515 115.562C35.3701 113.25 34.7511 111.076 34.5792 108.799C34.0977 102.691 35.6452 97.4806 40.8034 93.6849C41.9726 92.8223 42.5228 92.8223 43.0386 94.3751C44.5516 99.1715 45.377 103.968 44.5173 109.075C43.2105 116.839 32.6878 123.395 24.2628 119.565C19.9299 117.598 16.4567 114.665 13.293 111.214C12.5365 110.386 13.0179 110.11 13.7057 109.73C18.0042 107.453 22.3371 107.453 26.7387 109.316C29.6273 110.524 32.1032 112.387 34.3728 114.492C34.7855 114.837 35.0606 115.355 35.8515 115.562Z" fill="#FF5817"/>
<path d="M139.841 115.321C140.941 115.355 141.285 114.596 141.801 114.113C145.446 110.8 149.469 108.316 154.524 107.971C157.344 107.764 159.957 108.523 162.399 109.869C163.018 110.214 163.087 110.524 162.64 111.042C158.204 115.942 153.355 120.186 146.409 120.704C141.147 121.118 132.447 116.597 131.175 108.592C130.349 103.45 131.381 98.5849 132.997 93.754C133.341 92.7189 133.857 92.9604 134.545 93.409C138.362 95.997 140.631 99.5856 141.113 104.175C141.491 107.902 141.147 111.594 139.841 115.321Z" fill="#FF5817"/>
<path d="M148.987 102.449C150.981 99.7234 152.735 97.446 155.074 95.6517C158.994 92.6496 163.292 91.5109 168.107 93.0292C168.726 93.2363 169.345 93.3398 168.794 94.2714C166.422 98.1017 163.567 101.483 159.682 103.899C152.529 108.316 140.94 103.968 139.427 93.9954C138.911 90.5447 138.98 87.1631 139.461 83.7125C139.633 82.5738 140.046 82.3667 141.112 82.8498C146.717 85.5068 148.884 90.3032 149.331 96.1693C149.468 98.1017 149.434 100.069 148.987 102.449Z" fill="#FF5817"/>
<path d="M26.5663 102.139C26.5663 98.7575 26.2912 95.8934 26.9102 93.0639C27.9419 88.371 30.3834 84.7824 34.8882 82.781C35.7823 82.3669 36.0918 82.4705 36.2637 83.5402C36.8827 87.1978 36.8483 90.7865 36.2637 94.4442C34.7163 104.14 21.9584 109.523 13.6709 102.208C11.1262 99.9652 8.95974 97.4117 7.17157 94.5132C6.58698 93.547 6.89647 93.271 7.79056 93.0294C12.9831 91.4076 17.4536 92.8914 21.4426 96.273C23.2651 97.8603 24.847 99.7236 26.5663 102.139Z" fill="#FF5817"/>
<path d="M156.45 88.164C158.272 84.8169 160.129 81.6078 163.19 79.2958C166.079 77.0874 169.311 76.0522 172.99 76.7079C173.644 76.8114 174.091 76.9149 173.747 77.7431C172.028 81.9873 169.792 85.8176 166.182 88.7851C160.714 93.3054 150.26 91.3731 146.924 84.5753C144.999 80.6761 144.277 76.5698 144.242 72.291C144.242 71.3939 144.552 71.2559 145.377 71.4629C150.191 72.6361 153.149 75.7762 154.868 80.2965C155.762 82.85 156.244 85.4725 156.45 88.164Z" fill="#FF5817"/>
<path d="M19.3107 88.4054C19.5858 86.5076 19.7234 85.0238 20.0672 83.54C21.3052 77.9155 23.9531 73.4296 29.8678 71.6353C31.1745 71.2212 31.7591 71.3247 31.6216 72.912C31.3809 75.8106 31.1745 78.7436 30.2117 81.5041C28.561 86.3695 25.5693 89.7512 20.308 90.8899C14.7715 92.0976 10.4386 90.3033 6.89667 86.1625C4.8334 83.7471 3.42349 80.952 2.18553 78.0535C1.73849 77.0183 2.11675 76.8113 3.04523 76.7077C8.5129 75.9831 12.5019 78.4676 15.8031 82.5048C17.1443 84.1956 18.1415 86.128 19.3107 88.4054Z" fill="#FF5817"/>
<path d="M159.647 73.6712C162.776 66.8734 166.662 61.2834 175.5 62.077C173.987 67.115 171.958 71.6698 167.659 74.7754C162.776 78.3296 153.045 77.3979 149.434 69.6339C148.024 66.5974 147.336 63.3538 146.958 60.0412C146.82 58.8679 147.267 58.6954 148.265 58.9025C152.769 59.7651 155.658 62.5256 157.515 66.5629C158.581 68.7713 159.097 71.1867 159.647 73.6712Z" fill="#FF5817"/>
<path d="M16.1468 74.2233C16.6626 71.9459 16.9377 69.979 17.6255 68.0812C19.3449 63.4573 22.199 60.0757 27.2197 58.937C28.5952 58.6264 28.9735 58.9025 28.8015 60.4208C28.3545 63.8714 27.5979 67.1495 26.0161 70.2551C22.2334 77.743 10.8167 79.1577 5.34898 72.1874C3.21693 69.4959 1.73825 66.5284 0.672223 63.2848C0.328344 62.2841 0.56906 61.9735 1.6007 61.939C6.75888 61.6975 10.404 64.182 13.1894 68.2537C14.3586 70.0135 15.2527 71.9459 16.1468 74.2233Z" fill="#FF5817"/>
<path d="M15.3558 59.3856C16.6626 56.0384 17.9693 53.3124 20.2733 51.2075C22.371 49.3097 24.7781 48.378 27.6323 48.4815C28.492 48.516 28.7671 48.8266 28.492 49.6547C27.2884 53.3469 25.7066 56.7976 22.5773 59.3165C18.4508 62.5946 11.47 61.8355 8.16877 57.7292C5.65846 54.6237 4.79876 50.897 4.35172 47.0668C4.21417 45.9626 5.00509 46.2041 5.58968 46.3076C8.92531 46.9633 11.4012 48.8266 13.0862 51.7941C14.2898 54.0371 14.9432 56.4525 15.3558 59.3856Z" fill="#FF5817"/>
<path d="M160.267 58.9714C160.783 57.1426 161.161 55.5553 161.711 54.037C163.155 50.1723 165.631 47.3773 169.827 46.4111C171.099 46.1006 171.477 46.4111 171.305 47.6879C170.961 50.6899 170.17 53.5194 168.726 56.1764C165.219 62.5256 155.418 63.2847 151.016 57.2461C149.331 54.9342 148.128 52.4497 147.268 49.7582C146.993 48.8266 147.234 48.585 148.162 48.5505C152.598 48.447 155.59 50.6899 157.894 54.2096C158.891 55.5898 159.51 57.1771 160.267 58.9714Z" fill="#FF5817"/>
<path d="M158.891 46.4801C159.201 44.3752 159.338 42.4428 159.957 40.614C160.954 37.7845 162.708 35.6106 165.528 34.4718C167.213 33.8162 167.488 33.9543 167.419 35.6796C167.35 37.7845 167.075 39.8893 166.491 41.9252C164.427 49.0681 154.971 51.38 149.881 45.5139C148.403 43.8231 147.268 41.9252 146.271 39.8893C145.755 38.8197 146.168 38.6816 147.13 38.5781C151.36 38.095 154.352 40.1309 156.793 43.3055C157.55 44.2717 158.135 45.3069 158.891 46.4801Z" fill="#FF5817"/>
<path d="M16.6972 46.6873C17.7976 45.0655 18.5885 43.7887 19.517 42.6155C21.8554 39.717 24.8127 38.1642 28.6298 38.6128C29.2144 38.6818 29.9365 38.7508 29.5583 39.579C27.6325 43.6852 25.3285 47.5154 20.5142 48.6887C16.6628 49.6203 12.158 47.619 10.2666 44.1683C8.71919 41.3388 8.30653 38.2332 8.37531 35.0586C8.37531 34.0579 8.89113 34.0579 9.57889 34.265C12.0204 35.0586 13.843 36.6114 15.0466 38.8888C16.2501 41.2008 16.6972 43.6852 16.6972 46.6873Z" fill="#FF5817"/>
<path d="M155.831 35.7143C155.934 33.7819 155.659 31.8841 156.209 30.0898C156.828 28.0194 157.894 26.3631 159.785 25.2934C160.714 24.7758 161.229 24.6032 161.436 26.018C161.745 28.0194 161.745 30.0207 161.298 31.9876C160.163 37.06 154.352 39.6135 149.847 37.06C147.818 35.9213 146.34 34.1615 144.998 32.2982C144.345 31.3665 144.689 31.0214 145.617 30.8144C148.54 30.1588 151.016 31.0214 153.183 32.9883C154.111 33.7819 154.902 34.7136 155.831 35.7143Z" fill="#FF5817"/>
<path d="M20.3082 35.4725C22.1308 32.9536 24.3316 30.9522 27.6328 30.6071C27.7016 30.6071 27.736 30.5726 27.8048 30.5726C28.9396 30.5726 30.4526 30.3656 31.0028 31.2628C31.4843 32.0219 30.1775 32.9536 29.5929 33.7817C28.8364 34.8169 27.9079 35.6451 26.9107 36.4042C22.2339 39.8894 15.8378 37.5774 14.4623 31.9184C13.8777 29.5374 13.9808 27.191 14.5998 24.8101C18.3137 25.9143 20.1019 29.0889 19.9643 34.1613C19.758 35.231 19.7924 35.3 20.3082 35.4725Z" fill="#FF5817"/>
<path d="M152.048 26.501C152.254 24.6722 151.704 22.9813 152.048 21.2905C152.495 19.2201 153.423 17.5638 155.177 16.3906C155.831 15.942 156.106 16.011 156.346 16.8047C157 19.0821 157.309 21.4286 156.793 23.7405C155.968 27.6052 151.566 30.1242 147.749 29.0545C145.17 28.2953 143.348 26.501 141.594 24.5686C140.906 23.8095 141.525 23.637 142.075 23.3954C144.586 22.3257 146.89 22.8778 149.091 24.2581C150.122 24.8792 150.982 25.6728 152.048 26.501Z" fill="#FF5817"/>
<path d="M23.2655 27.1567C24.1252 26.363 24.6411 25.8454 25.1913 25.3623C26.5668 24.1201 28.183 23.2575 30.0056 22.9124C31.553 22.6363 33.4788 22.6363 34.2353 23.9131C34.7511 24.8102 32.9973 25.8454 32.1032 26.6391C28.802 29.6066 25.879 30.0207 22.4402 28.1574C19.9643 26.8116 18.9327 24.6722 18.7263 22.0152C18.5888 20.3934 18.9671 18.8406 19.2766 17.2878C19.586 15.666 20.2394 16.0111 21.1679 16.7702C23.9189 19.0822 24.1252 22.1187 23.7126 25.3623C23.6094 25.8454 23.4719 26.2595 23.2655 27.1567Z" fill="#FF5817"/>
<path d="M147.853 19.2547C146.718 14.9069 146.271 11.1802 150.225 8.41968C151.36 10.7316 151.945 13.0435 151.739 15.4935C151.429 19.5652 146.993 22.4983 142.97 21.3251C140.941 20.7385 139.324 19.4962 137.777 18.116C137.02 17.4258 137.433 17.0808 138.087 16.7357C139.943 15.804 141.8 15.7695 143.726 16.5287C145.102 17.0808 146.374 17.8399 147.853 19.2547Z" fill="#FF5817"/>
<path d="M27.9073 19.1165C29.833 17.5982 31.518 16.4595 33.6157 16.1144C33.8908 16.0799 34.1659 15.9764 34.441 15.9764C35.8853 16.0109 37.7078 16.0454 38.2237 17.3567C38.5675 18.2193 36.8825 19.082 35.9197 19.7376C33.2718 21.5319 30.5208 22.5326 27.4946 20.6348C24.3653 18.6679 23.3681 16.0454 24.2278 12.0427C24.2966 11.6631 24.3653 11.249 24.5373 10.8695C24.8812 10.1103 24.8812 8.76457 25.6033 8.69555C26.5318 8.59204 27.1508 9.73075 27.6666 10.5244C28.9733 12.5603 28.8014 14.7687 28.4231 17.0116C28.32 17.5982 28.148 18.1848 27.9073 19.1165Z" fill="#FF5817"/>
<path d="M47.096 0.207093C45.4798 3.4852 43.5885 6.28022 40.528 8.10906C39.6339 8.66116 38.671 9.00622 37.6738 9.24777C36.9516 9.4203 36.0575 9.69635 35.5417 9.17876C35.0603 8.66116 35.6793 7.90202 35.92 7.2809C38.0176 2.20846 42.1442 -0.448529 47.096 0.207093Z" fill="#FF5817"/>
<path d="M130.349 0.0345667C134.888 0.172592 139.187 3.86478 140.287 8.41962C140.562 9.52383 139.909 9.42031 139.29 9.3858C136.504 9.21327 134.338 7.83301 132.447 5.90065C131.209 4.62392 130.177 3.17465 129.352 1.58735C129.111 1.13877 128.595 0.690188 128.905 0.207099C129.249 -0.172472 129.902 0.0690731 130.349 0.0345667Z" fill="#FF5817"/>
<path d="M143.141 12.4568C142.144 10.1794 141.422 8.14352 142.419 5.93511C142.728 5.27949 143.038 4.38232 143.794 4.38232C144.413 4.38232 144.551 5.27949 144.826 5.83159C146.511 9.38575 145.961 12.1808 143.244 14.0441C141.215 15.4589 136.676 14.7687 135.163 12.8709C134.682 12.2843 135.129 12.0427 135.472 11.8012C137.02 10.766 138.705 10.7315 140.39 11.2836C141.284 11.5597 142.075 12.0082 143.141 12.4568Z" fill="#FF5817"/>
<path d="M32.3087 12.6639C34.0968 11.8012 35.438 11.0421 36.9854 10.9731C38.4641 10.9386 40.2867 11.0421 40.6993 12.3878C40.9744 13.2505 39.0831 13.8371 38.0171 14.2857C35.8162 15.2519 33.7186 15.2174 31.8272 13.4575C29.9359 11.7322 29.6264 9.69633 30.3486 7.34989C30.4173 7.07384 30.5205 6.79779 30.6237 6.55625C31.0707 5.7626 31.1395 4.24432 32.1367 4.38234C33.134 4.55487 33.581 5.93513 33.7186 7.00483C33.9937 8.93719 33.6498 10.697 32.3087 12.6639Z" fill="#FF5817"/>
<path d="M20.3077 35.4726C20.1358 35.7487 19.9982 36.4733 19.6887 35.6106C19.5512 35.1621 19.5512 34.5755 19.9638 34.1614C20.1701 34.5755 19.8263 35.1276 20.3077 35.4726Z" fill="#FF5817"/>
<path d="M136.659 59.351V49.3127H138.774V57.6011H143.063V59.351H136.659Z" fill="white"/>
<path d="M128.094 59.351H125.827L129.281 49.3127H132.006L135.455 59.351H133.188L130.682 51.6066H130.604L128.094 59.351ZM127.952 55.4053H133.306V57.062H127.952V55.4053Z" fill="white"/>
<path d="M124.622 49.3127V59.351H122.795L118.443 53.033H118.37V59.351H116.255V49.3127H118.111L122.429 55.6258H122.517V49.3127H124.622Z" fill="white"/>
<path d="M114.688 54.3319C114.688 55.4266 114.481 56.3578 114.068 57.1257C113.657 57.8936 113.097 58.4802 112.387 58.8854C111.681 59.2873 110.886 59.4882 110.004 59.4882C109.115 59.4882 108.317 59.2857 107.61 58.8805C106.904 58.4753 106.345 57.8887 105.935 57.1208C105.524 56.3529 105.319 55.4233 105.319 54.3319C105.319 53.2372 105.524 52.3059 105.935 51.5381C106.345 50.7702 106.904 50.1852 107.61 49.7833C108.317 49.3781 109.115 49.1755 110.004 49.1755C110.886 49.1755 111.681 49.3781 112.387 49.7833C113.097 50.1852 113.657 50.7702 114.068 51.5381C114.481 52.3059 114.688 53.2372 114.688 54.3319ZM112.544 54.3319C112.544 53.6228 112.438 53.0248 112.226 52.538C112.018 52.0511 111.723 51.6818 111.342 51.4302C110.961 51.1786 110.515 51.0528 110.004 51.0528C109.492 51.0528 109.046 51.1786 108.665 51.4302C108.284 51.6818 107.988 52.0511 107.776 52.538C107.568 53.0248 107.464 53.6228 107.464 54.3319C107.464 55.041 107.568 55.639 107.776 56.1258C107.988 56.6127 108.284 56.982 108.665 57.2336C109.046 57.4852 109.492 57.611 110.004 57.611C110.515 57.611 110.961 57.4852 111.342 57.2336C111.723 56.982 112.018 56.6127 112.226 56.1258C112.438 55.639 112.544 55.041 112.544 54.3319Z" fill="white"/>
<path d="M103.755 49.3127V59.351H101.64V49.3127H103.755Z" fill="white"/>
<path d="M92.0713 51.0626V49.3127H100.287V51.0626H97.2246V59.351H95.134V51.0626H92.0713Z" fill="white"/>
<path d="M85.1092 59.351H82.8428L86.2962 49.3127H89.0218L92.4704 59.351H90.2039L87.6981 51.6066H87.62L85.1092 59.351ZM84.9676 55.4053H90.3212V57.062H84.9676V55.4053Z" fill="white"/>
<path d="M81.6369 49.3127V59.351H79.8101L75.4579 53.033H75.3846V59.351H73.2695V49.3127H75.1257L79.4437 55.6258H79.5316V49.3127H81.6369Z" fill="white"/>
<path d="M64.2432 59.351V49.3127H68.19C68.9454 49.3127 69.5902 49.4484 70.1243 49.7196C70.6616 49.9875 71.0703 50.3682 71.3503 50.8616C71.6336 51.3518 71.7753 51.9285 71.7753 52.5918C71.7753 53.2584 71.632 53.8319 71.3454 54.3123C71.0589 54.7893 70.6437 55.1553 70.0999 55.4102C69.5593 55.6651 68.9047 55.7925 68.1362 55.7925H65.4936V54.0868H67.7943C68.1981 54.0868 68.5335 54.0312 68.8005 53.9201C69.0676 53.809 69.2662 53.6424 69.3965 53.4202C69.53 53.198 69.5967 52.9219 69.5967 52.5918C69.5967 52.2585 69.53 51.9775 69.3965 51.7488C69.2662 51.52 69.0659 51.3469 68.7957 51.2292C68.5286 51.1083 68.1916 51.0479 67.7845 51.0479H66.3582V59.351H64.2432ZM69.6456 54.7828L72.1319 59.351H69.797L67.3644 54.7828H69.6456Z" fill="white"/>
<path d="M55.8203 59.351V49.3127H62.5611V51.0626H57.9354V53.4545H62.2143V55.2043H57.9354V57.6011H62.5807V59.351H55.8203Z" fill="white"/>
<path d="M46.252 51.0626V49.3127H54.4679V51.0626H51.4053V59.351H49.3146V51.0626H46.252Z" fill="white"/>
<path d="M44.885 49.3127V59.351H43.0581L38.7059 53.033H38.6326V59.351H36.5176V49.3127H38.3737L42.6918 55.6258H42.7797V49.3127H44.885Z" fill="white"/>
<path d="M34.7781 49.3127V59.351H32.6631V49.3127H34.7781Z" fill="white"/>
<path d="M134.545 65.4995V74.5339H132.901L128.984 68.8477H128.918V74.5339H127.015V65.4995H128.685L132.571 71.1813H132.651V65.4995H134.545Z" fill="white"/>
<path d="M125.605 70.0167C125.605 71.0019 125.419 71.84 125.046 72.5312C124.677 73.2223 124.173 73.7502 123.534 74.1148C122.898 74.4765 122.183 74.6574 121.389 74.6574C120.589 74.6574 119.871 74.4751 119.235 74.1104C118.599 73.7457 118.096 73.2179 117.727 72.5267C117.357 71.8356 117.173 70.999 117.173 70.0167C117.173 69.0315 117.357 68.1933 117.727 67.5022C118.096 66.8111 118.599 66.2847 119.235 65.923C119.871 65.5583 120.589 65.376 121.389 65.376C122.183 65.376 122.898 65.5583 123.534 65.923C124.173 66.2847 124.677 66.8111 125.046 67.5022C125.419 68.1933 125.605 69.0315 125.605 70.0167ZM123.675 70.0167C123.675 69.3785 123.58 68.8403 123.389 68.4021C123.201 67.964 122.936 67.6316 122.593 67.4052C122.25 67.1787 121.849 67.0655 121.389 67.0655C120.929 67.0655 120.527 67.1787 120.184 67.4052C119.841 67.6316 119.575 67.964 119.384 68.4021C119.197 68.8403 119.103 69.3785 119.103 70.0167C119.103 70.6549 119.197 71.193 119.384 71.6312C119.575 72.0694 119.841 72.4018 120.184 72.6282C120.527 72.8547 120.929 72.9679 121.389 72.9679C121.849 72.9679 122.25 72.8547 122.593 72.6282C122.936 72.4018 123.201 72.0694 123.389 71.6312C123.58 71.193 123.675 70.6549 123.675 70.0167Z" fill="white"/>
<path d="M115.765 65.4995V74.5339H113.861V65.4995H115.765Z" fill="white"/>
<path d="M105.249 67.0744V65.4995H112.643V67.0744H109.887V74.5339H108.005V67.0744H105.249Z" fill="white"/>
<path d="M98.9832 74.5339H96.9434L100.051 65.4995H102.505L105.608 74.5339H103.568L101.313 67.564H101.243L98.9832 74.5339ZM98.8557 70.9828H103.674V72.4738H98.8557V70.9828Z" fill="white"/>
<path d="M96.2359 68.6624H94.3104C94.2753 68.4124 94.2035 68.1904 94.095 67.9963C93.9866 67.7993 93.8474 67.6316 93.6774 67.4934C93.5074 67.3552 93.311 67.2493 93.0883 67.1758C92.8685 67.1023 92.6296 67.0655 92.3717 67.0655C91.9057 67.0655 91.4998 67.1817 91.154 67.414C90.8081 67.6434 90.54 67.9787 90.3495 68.4198C90.159 68.858 90.0637 69.3903 90.0637 70.0167C90.0637 70.6607 90.159 71.2019 90.3495 71.6401C90.5429 72.0783 90.8125 72.4091 91.1584 72.6326C91.5042 72.8561 91.9042 72.9679 92.3585 72.9679C92.6135 72.9679 92.8494 72.9341 93.0663 72.8664C93.2861 72.7988 93.481 72.7003 93.651 72.5709C93.821 72.4385 93.9617 72.2782 94.073 72.09C94.1873 71.9018 94.2665 71.6871 94.3104 71.446L96.2359 71.4548C96.1861 71.8695 96.0616 72.2694 95.8623 72.6547C95.6659 73.037 95.4007 73.3796 95.0666 73.6825C94.7354 73.9825 94.3397 74.2207 93.8796 74.3971C93.4224 74.5707 92.9051 74.6574 92.3277 74.6574C91.5247 74.6574 90.8067 74.4751 90.1736 74.1104C89.5435 73.7457 89.0453 73.2179 88.6789 72.5267C88.3155 71.8356 88.1338 70.999 88.1338 70.0167C88.1338 69.0315 88.3184 68.1933 88.6877 67.5022C89.057 66.8111 89.5582 66.2847 90.1912 65.923C90.8243 65.5583 91.5364 65.376 92.3277 65.376C92.8494 65.376 93.333 65.4495 93.7785 65.5965C94.2269 65.7436 94.624 65.9583 94.9699 66.2406C95.3157 66.52 95.597 66.8626 95.8139 67.2684C96.0337 67.6743 96.1744 68.1389 96.2359 68.6624Z" fill="white"/>
<path d="M86.7258 65.4995V74.5339H84.8223V65.4995H86.7258Z" fill="white"/>
<path d="M77.5811 74.5339V65.4995H83.5423V67.0744H79.4846V69.2271H83.1466V70.8019H79.4846V74.5339H77.5811Z" fill="white"/>
<path d="M76.0149 65.4995V74.5339H74.1113V65.4995H76.0149Z" fill="white"/>
<path d="M65.499 67.0744V65.4995H72.8934V67.0744H70.137V74.5339H68.2554V67.0744H65.499Z" fill="white"/>
<path d="M57.7178 74.5339V65.4995H61.2699C61.9498 65.4995 62.5301 65.6216 63.0108 65.8657C63.4944 66.1068 63.8622 66.4494 64.1142 66.8935C64.3692 67.3346 64.4967 67.8537 64.4967 68.4507C64.4967 69.0506 64.3677 69.5668 64.1098 69.9991C63.8519 70.4284 63.4782 70.7578 62.9888 70.9872C62.5023 71.2166 61.9132 71.3313 61.2215 71.3313H58.8432V69.7961H60.9138C61.2772 69.7961 61.5791 69.7462 61.8194 69.6462C62.0597 69.5462 62.2385 69.3962 62.3557 69.1962C62.4759 68.9962 62.536 68.7477 62.536 68.4507C62.536 68.1507 62.4759 67.8978 62.3557 67.6919C62.2385 67.4861 62.0583 67.3302 61.815 67.2243C61.5747 67.1155 61.2714 67.0611 60.905 67.0611H59.6213V74.5339H57.7178ZM62.5799 70.4226L64.8176 74.5339H62.7162L60.5269 70.4226H62.5799Z" fill="white"/>
<path d="M50.1377 74.5339V65.4995H56.2044V67.0744H52.0412V69.2271H55.8923V70.8019H52.0412V72.9591H56.222V74.5339H50.1377Z" fill="white"/>
<path d="M48.7731 68.6624H46.8475C46.8124 68.4124 46.7406 68.1904 46.6321 67.9963C46.5237 67.7993 46.3845 67.6316 46.2145 67.4934C46.0445 67.3552 45.8481 67.2493 45.6254 67.1758C45.4056 67.1023 45.1667 67.0655 44.9088 67.0655C44.4428 67.0655 44.0369 67.1817 43.6911 67.414C43.3452 67.6434 43.0771 67.9787 42.8866 68.4198C42.6961 68.858 42.6008 69.3903 42.6008 70.0167C42.6008 70.6607 42.6961 71.2019 42.8866 71.6401C43.08 72.0783 43.3496 72.4091 43.6955 72.6326C44.0413 72.8561 44.4414 72.9679 44.8956 72.9679C45.1506 72.9679 45.3865 72.9341 45.6034 72.8664C45.8232 72.7988 46.0181 72.7003 46.1881 72.5709C46.3581 72.4385 46.4988 72.2782 46.6101 72.09C46.7244 71.9018 46.8036 71.6871 46.8475 71.446L48.7731 71.4548C48.7232 71.8695 48.5987 72.2694 48.3994 72.6547C48.203 73.037 47.9378 73.3796 47.6037 73.6825C47.2725 73.9825 46.8768 74.2207 46.4167 74.3971C45.9595 74.5707 45.4422 74.6574 44.8649 74.6574C44.0618 74.6574 43.3438 74.4751 42.7107 74.1104C42.0806 73.7457 41.5824 73.2179 41.216 72.5267C40.8526 71.8356 40.6709 70.999 40.6709 70.0167C40.6709 69.0315 40.8555 68.1933 41.2248 67.5022C41.5941 66.8111 42.0953 66.2847 42.7283 65.923C43.3614 65.5583 44.0735 65.376 44.8649 65.376C45.3865 65.376 45.8701 65.4495 46.3156 65.5965C46.764 65.7436 47.1611 65.9583 47.507 66.2406C47.8528 66.52 48.1341 66.8626 48.351 67.2684C48.5708 67.6743 48.7115 68.1389 48.7731 68.6624Z" fill="white"/>
<path d="M120.489 42.4431H117.298V33.4087H120.516C121.421 33.4087 122.201 33.5896 122.855 33.9513C123.508 34.3101 124.011 34.8262 124.363 35.4997C124.717 36.1731 124.894 36.9789 124.894 37.9171C124.894 38.8582 124.717 39.6669 124.363 40.3433C124.011 41.0197 123.505 41.5388 122.846 41.9005C122.189 42.2622 121.404 42.4431 120.489 42.4431ZM119.201 40.8065H120.41C120.973 40.8065 121.446 40.7065 121.83 40.5065C122.217 40.3036 122.507 39.9904 122.701 39.5669C122.897 39.1405 122.995 38.5905 122.995 37.9171C122.995 37.2495 122.897 36.704 122.701 36.2805C122.507 35.857 122.219 35.5452 121.835 35.3453C121.451 35.1453 120.977 35.0453 120.415 35.0453H119.201V40.8065Z" fill="white"/>
<path d="M109.718 42.4431V33.4087H115.785V34.9835H111.621V37.1363H115.472V38.7111H111.621V40.8683H115.802V42.4431H109.718Z" fill="white"/>
<path d="M98.3906 33.4087H100.738L103.218 39.4787H103.323L105.803 33.4087H108.15V42.4431H106.304V36.5628H106.229L103.899 42.399H102.642L100.312 36.5407H100.237V42.4431H98.3906V33.4087Z" fill="white"/>
<path d="M96.8244 33.4087V42.4431H94.9209V33.4087H96.8244Z" fill="white"/>
<path d="M87.2117 42.4431H85.1719L88.28 33.4087H90.733L93.8367 42.4431H91.7969L89.5417 35.4732H89.4713L87.2117 42.4431ZM87.0842 38.892H91.9024V40.383H87.0842V38.892Z" fill="white"/>
<path d="M78.4062 42.4431V33.4087H80.3098V40.8683H84.1696V42.4431H78.4062Z" fill="white"/>
<path d="M77.0416 36.5716H75.1161C75.0809 36.3216 75.0091 36.0996 74.9007 35.9055C74.7922 35.7084 74.653 35.5408 74.483 35.4026C74.3131 35.2644 74.1167 35.1585 73.8939 35.085C73.6741 35.0115 73.4353 34.9747 73.1774 34.9747C72.7114 34.9747 72.3055 35.0909 71.9596 35.3232C71.6138 35.5526 71.3456 35.8878 71.1551 36.329C70.9646 36.7672 70.8694 37.2995 70.8694 37.9259C70.8694 38.5699 70.9646 39.1111 71.1551 39.5492C71.3486 39.9874 71.6182 40.3183 71.964 40.5418C72.3099 40.7653 72.7099 40.8771 73.1642 40.8771C73.4192 40.8771 73.6551 40.8432 73.872 40.7756C74.0918 40.708 74.2867 40.6094 74.4567 40.48C74.6266 40.3477 74.7673 40.1874 74.8787 39.9992C74.993 39.811 75.0721 39.5963 75.1161 39.3551L77.0416 39.364C76.9918 39.7786 76.8672 40.1786 76.6679 40.5638C76.4716 40.9462 76.2063 41.2888 75.8722 41.5917C75.541 41.8917 75.1454 42.1299 74.6853 42.3063C74.2281 42.4798 73.7108 42.5666 73.1334 42.5666C72.3304 42.5666 71.6123 42.3843 70.9793 42.0196C70.3492 41.6549 69.8509 41.127 69.4846 40.4359C69.1212 39.7448 68.9395 38.9081 68.9395 37.9259C68.9395 36.9407 69.1241 36.1025 69.4934 35.4114C69.8627 34.7203 70.3638 34.1939 70.9969 33.8322C71.6299 33.4675 72.3421 33.2852 73.1334 33.2852C73.6551 33.2852 74.1387 33.3587 74.5841 33.5057C75.0326 33.6528 75.4297 33.8675 75.7755 34.1498C76.1213 34.4292 76.4027 34.7718 76.6196 35.1776C76.8394 35.5835 76.9801 36.0481 77.0416 36.5716Z" fill="white"/>
<path d="M67.732 36.5716H65.8065C65.7713 36.3216 65.6995 36.0996 65.5911 35.9055C65.4827 35.7084 65.3435 35.5408 65.1735 35.4026C65.0035 35.2644 64.8071 35.1585 64.5844 35.085C64.3646 35.0115 64.1257 34.9747 63.8678 34.9747C63.4018 34.9747 62.9959 35.0909 62.6501 35.3232C62.3042 35.5526 62.0361 35.8878 61.8456 36.329C61.6551 36.7672 61.5598 37.2995 61.5598 37.9259C61.5598 38.5699 61.6551 39.1111 61.8456 39.5492C62.039 39.9874 62.3086 40.3183 62.6545 40.5418C63.0003 40.7653 63.4003 40.8771 63.8546 40.8771C64.1096 40.8771 64.3455 40.8432 64.5624 40.7756C64.7822 40.708 64.9771 40.6094 65.1471 40.48C65.3171 40.3477 65.4578 40.1874 65.5691 39.9992C65.6834 39.811 65.7626 39.5963 65.8065 39.3551L67.732 39.364C67.6822 39.7786 67.5577 40.1786 67.3584 40.5638C67.162 40.9462 66.8968 41.2888 66.5627 41.5917C66.2315 41.8917 65.8358 42.1299 65.3757 42.3063C64.9185 42.4798 64.4012 42.5666 63.8238 42.5666C63.0208 42.5666 62.3028 42.3843 61.6697 42.0196C61.0396 41.6549 60.5414 41.127 60.175 40.4359C59.8116 39.7448 59.6299 38.9081 59.6299 37.9259C59.6299 36.9407 59.8145 36.1025 60.1838 35.4114C60.5531 34.7203 61.0542 34.1939 61.6873 33.8322C62.3203 33.4675 63.0325 33.2852 63.8238 33.2852C64.3455 33.2852 64.8291 33.3587 65.2746 33.5057C65.723 33.6528 66.1201 33.8675 66.4659 34.1498C66.8118 34.4292 67.0931 34.7718 67.31 35.1776C67.5298 35.5835 67.6705 36.0481 67.732 36.5716Z" fill="white"/>
<path d="M52.5027 42.4431H50.4629L53.571 33.4087H56.0241L59.1278 42.4431H57.0879L54.8327 35.4732H54.7624L52.5027 42.4431ZM52.3752 38.892H57.1934V40.383H52.3752V38.892Z" fill="white"/>
<path d="M98.7119 19.8007V18.2258H106.106V19.8007H103.35V27.2602H101.468V19.8007H98.7119Z" fill="white"/>
<path d="M95.8276 20.8241C95.7925 20.4682 95.6415 20.1918 95.3748 19.9948C95.1081 19.7977 94.7462 19.6992 94.289 19.6992C93.9783 19.6992 93.716 19.7433 93.502 19.8315C93.2881 19.9168 93.124 20.0359 93.0097 20.1889C92.8983 20.3418 92.8426 20.5153 92.8426 20.7094C92.8368 20.8711 92.8705 21.0123 92.9437 21.1329C93.0199 21.2535 93.124 21.3579 93.2559 21.4461C93.3877 21.5314 93.5401 21.6064 93.7131 21.6711C93.886 21.7328 94.0706 21.7858 94.267 21.8299L95.0759 22.024C95.4686 22.1122 95.8291 22.2298 96.1573 22.3769C96.4856 22.5239 96.7699 22.7048 97.0102 22.9195C97.2505 23.1342 97.4366 23.3871 97.5685 23.6782C97.7033 23.9694 97.7722 24.3032 97.7751 24.6796C97.7722 25.2325 97.6315 25.7118 97.3531 26.1177C97.0776 26.5206 96.679 26.8338 96.1573 27.0573C95.6386 27.2779 95.0129 27.3881 94.2802 27.3881C93.5533 27.3881 92.9203 27.2764 92.381 27.0529C91.8447 26.8294 91.4256 26.4985 91.1237 26.0603C90.8248 25.6192 90.668 25.0737 90.6533 24.4237H92.4953C92.5158 24.7266 92.6023 24.9796 92.7547 25.1825C92.91 25.3825 93.1166 25.5339 93.3746 25.6368C93.6354 25.7368 93.9299 25.7868 94.2582 25.7868C94.5806 25.7868 94.8605 25.7398 95.0979 25.6457C95.3382 25.5516 95.5243 25.4207 95.6562 25.2531C95.7881 25.0854 95.854 24.8928 95.854 24.6752C95.854 24.4723 95.7939 24.3017 95.6738 24.1635C95.5565 24.0252 95.3836 23.9076 95.155 23.8106C94.9293 23.7135 94.6524 23.6253 94.3241 23.5459L93.3438 23.2988C92.5847 23.1136 91.9854 22.8239 91.5457 22.4298C91.1061 22.0357 90.8878 21.5049 90.8907 20.8373C90.8878 20.2903 91.0329 19.8124 91.3259 19.4036C91.6219 18.9949 92.0279 18.6758 92.5437 18.4464C93.0595 18.217 93.6457 18.1023 94.3022 18.1023C94.9704 18.1023 95.5536 18.217 96.0518 18.4464C96.553 18.6758 96.9428 18.9949 97.2212 19.4036C97.4996 19.8124 97.6432 20.2859 97.652 20.8241H95.8276Z" fill="white"/>
<path d="M89.5334 22.743C89.5334 23.7282 89.3473 24.5664 88.9751 25.2575C88.6058 25.9486 88.1017 26.4765 87.4628 26.8411C86.8269 27.2029 86.1117 27.3837 85.3175 27.3837C84.5174 27.3837 83.7994 27.2014 83.1634 26.8367C82.5274 26.4721 82.0248 25.9442 81.6555 25.2531C81.2862 24.562 81.1016 23.7253 81.1016 22.743C81.1016 21.7578 81.2862 20.9197 81.6555 20.2286C82.0248 19.5374 82.5274 19.011 83.1634 18.6493C83.7994 18.2846 84.5174 18.1023 85.3175 18.1023C86.1117 18.1023 86.8269 18.2846 87.4628 18.6493C88.1017 19.011 88.6058 19.5374 88.9751 20.2286C89.3473 20.9197 89.5334 21.7578 89.5334 22.743ZM87.6035 22.743C87.6035 22.1048 87.5083 21.5667 87.3178 21.1285C87.1302 20.6903 86.865 20.358 86.5221 20.1315C86.1792 19.9051 85.7776 19.7918 85.3175 19.7918C84.8574 19.7918 84.4558 19.9051 84.1129 20.1315C83.77 20.358 83.5033 20.6903 83.3128 21.1285C83.1253 21.5667 83.0315 22.1048 83.0315 22.743C83.0315 23.3812 83.1253 23.9194 83.3128 24.3576C83.5033 24.7958 83.77 25.1281 84.1129 25.3545C84.4558 25.581 84.8574 25.6942 85.3175 25.6942C85.7776 25.6942 86.1792 25.581 86.5221 25.3545C86.865 25.1281 87.1302 24.7958 87.3178 24.3576C87.5083 23.9194 87.6035 23.3812 87.6035 22.743Z" fill="white"/>
<path d="M69.9316 18.2258H72.2792L74.7586 24.2958H74.8642L77.3436 18.2258H79.6912V27.2602H77.8448V21.3799H77.77L75.4401 27.2161H74.1827L71.8528 21.3579H71.778V27.2602H69.9316V18.2258Z" fill="white"/>
</g>
<defs>
<clipPath id="clip0_500_10177">
<rect width="175" height="151" fill="white" transform="translate(0.5)"/>
</clipPath>
</defs>
</svg>
