<svg width="57" height="83" viewBox="0 0 57 83" fill="none" xmlns="http://www.w3.org/2000/svg">
<path d="M21.9805 82.2305C17.8789 82.2305 14.1875 81.7292 10.9062 80.7266C7.625 79.6328 5.07292 78.1745 3.25 76.3516C1.42708 74.4375 0.515625 72.3411 0.515625 70.0625C0.515625 67.9661 1.15365 66.2799 2.42969 65.0039C3.79688 63.6367 5.48307 62.9531 7.48828 62.9531C9.03776 62.9531 10.4049 63.2266 11.5898 63.7734C12.8659 64.3203 14.4154 65.3685 16.2383 66.918L25.9453 75.3945L21.0234 72.9336C24.2135 73.8451 27.0391 73.8451 29.5 72.9336C32.0521 72.0221 34.1029 70.4727 35.6523 68.2852C37.2018 66.0977 37.9766 63.6367 37.9766 60.9023C37.9766 57.6211 36.974 54.8867 34.9688 52.6992C32.9635 50.5117 29.819 48.7799 25.5352 47.5039C21.2513 46.2279 15.6003 45.3164 8.58203 44.7695L13.6406 0.746094H52.4688L51.1016 15.7852H20.8867L18.8359 34.6523L15.0078 29.7305C28.9531 30.7331 39.3438 33.4674 46.1797 37.9336C53.1068 42.3086 56.5703 48.4154 56.5703 56.2539C56.5703 60.7201 55.1576 64.9583 52.332 68.9688C49.5977 72.888 45.6328 76.0781 40.4375 78.5391C35.2422 81 29.0898 82.2305 21.9805 82.2305Z" fill="#C6C6C6"/>
</svg>
