<svg width="67" height="81" viewBox="0 0 67 81" fill="none" xmlns="http://www.w3.org/2000/svg">
<path d="M54.918 60.6289C54.918 64.2747 54.918 66.8268 54.918 68.2852C55.0091 69.7435 55.1003 70.974 55.1914 71.9766L64.0781 74.1641L63.668 81H25.3867L24.9766 74.1641L36.7344 71.9766C36.8255 70.974 36.8711 69.7435 36.8711 68.2852C36.8711 66.8268 36.8711 64.2747 36.8711 60.6289V18.5195L38.9219 19.3398L14.5859 51.8789L14.0391 49.0078H66.5391V60.6289H1.73438L0.503906 54.2031L44.9375 0.199219H55.4648C55.2826 3.48047 55.1003 7.1263 54.918 11.1367C54.8268 15.056 54.7812 19.0664 54.7812 23.168L54.918 60.6289Z" fill="#6885BE"/>
</svg>
