<svg width="62" height="85" viewBox="0 0 62 85" fill="none" xmlns="http://www.w3.org/2000/svg">
<path d="M16.7129 47.1797C19.8118 43.0781 23.2754 39.7057 27.1035 37.0625C31.0228 34.3281 34.8053 32.9609 38.4512 32.9609C42.8262 32.9609 46.7454 34.0091 50.209 36.1055C53.6725 38.2018 56.4069 41.0273 58.4121 44.582C60.5085 48.1367 61.5566 52.1016 61.5566 56.4766C61.5566 61.6719 60.235 66.3659 57.5918 70.5586C54.9486 74.7513 51.3483 78.0781 46.791 80.5391C42.3249 83 37.2207 84.2305 31.4785 84.2305C25.3717 84.2305 19.9941 82.7721 15.3457 79.8555C10.7884 76.9388 7.18815 73.0651 4.54492 68.2344C1.99284 63.3125 0.716797 57.7982 0.716797 51.6914C0.716797 45.4023 1.90169 39.3867 4.27148 33.6445C6.73242 27.8112 10.2415 22.5247 14.7988 17.7852C19.3561 13.0456 24.916 9.17188 31.4785 6.16406C38.1322 3.0651 45.6517 1.10547 54.0371 0.285156L56.498 8.625C48.1126 10.5391 41.1855 13.4102 35.7168 17.2383C30.3392 21.0664 26.3288 25.9883 23.6855 32.0039C21.1335 37.9284 19.8574 45.1289 19.8574 53.6055C19.8574 57.707 20.4043 61.444 21.498 64.8164C22.6829 68.1888 24.2324 70.8776 26.1465 72.8828C28.1517 74.888 30.3848 75.8906 32.8457 75.8906C35.9447 75.8906 38.4512 74.569 40.3652 71.9258C42.3704 69.1914 43.373 65.8646 43.373 61.9453C43.373 57.1146 42.2793 53.2865 40.0918 50.4609C37.9043 47.5443 34.9421 46.0859 31.2051 46.0859C29.1999 46.0859 27.2402 46.4961 25.3262 47.3164C23.4121 48.0456 21.7259 49.0026 20.2676 50.1875C18.8092 51.3724 17.6243 52.5573 16.7129 53.7422V47.1797Z" fill="#6885BE"/>
</svg>
