<svg width="65" height="83" viewBox="0 0 65 83" fill="none" xmlns="http://www.w3.org/2000/svg">
<path d="M4.15234 82.4102L3.74219 75.0273C11.5807 68.7383 17.9154 62.9505 22.7461 57.6641C27.668 52.3776 31.2227 47.4102 33.4102 42.7617C35.6888 38.0221 36.8281 33.3737 36.8281 28.8164C36.8281 24.5326 35.5521 21.069 33 18.4258C30.5391 15.7826 27.1667 14.4609 22.8828 14.4609C16.0469 14.4609 10.6237 17.8333 6.61328 24.5781L0.597656 20.2031C3.24089 13.9141 7.06901 9.08333 12.082 5.71094C17.1862 2.2474 23.0195 0.515625 29.582 0.515625C34.6862 0.515625 39.2435 1.5638 43.2539 3.66016C47.2643 5.75651 50.4089 8.67318 52.6875 12.4102C54.9661 16.1471 56.1055 20.5221 56.1055 25.5352C56.1055 32.918 53.0065 40.3919 46.8086 47.957C40.7018 55.431 32.043 62.5404 20.832 69.2852V67.7812H44.6211C46.3529 67.7812 47.7201 67.7357 48.7227 67.6445C49.7253 67.5534 50.9102 67.3711 52.2773 67.0977L56.3789 57.2539L64.8555 58.3477L60.3438 82.6836C58.7943 82.5013 56.7891 82.3646 54.3281 82.2734C51.8672 82.1823 49.4974 82.0911 47.2188 82C44.9401 82 43.1172 82 41.75 82H14.6797C13.0391 82 11.3073 82 9.48438 82C7.66146 82.0911 5.88411 82.2279 4.15234 82.4102Z" fill="#6885BE"/>
</svg>
