<svg width="57" height="84" viewBox="0 0 57 84" fill="none" xmlns="http://www.w3.org/2000/svg">
<path d="M27.4062 40.5742L30.2773 37.8398C38.5716 37.931 44.9974 39.7995 49.5547 43.4453C54.112 47 56.3906 51.8307 56.3906 57.9375C56.3906 62.1302 54.9779 66.1862 52.1523 70.1055C49.418 73.9336 45.4531 77.0781 40.2578 79.5391C35.1536 82 29.0013 83.2305 21.8008 83.2305C17.6992 83.2305 14.0078 82.7292 10.7266 81.7266C7.53646 80.6328 4.98438 79.1745 3.07031 77.3516C1.2474 75.4375 0.335938 73.3411 0.335938 71.0625C0.335938 68.9661 0.973958 67.2799 2.25 66.0039C3.61719 64.6367 5.30339 63.9531 7.30859 63.9531C9.04036 63.9531 10.4987 64.2266 11.6836 64.7734C12.9596 65.3203 14.4635 66.3685 16.1953 67.918L25.7656 76.3945L20.8438 74.0703C24.0339 74.8906 26.9049 74.7995 29.457 73.7969C32.0091 72.7943 34.0143 71.1081 35.4727 68.7383C37.0221 66.2773 37.7969 63.4062 37.7969 60.125C37.7969 55.6589 36.3385 52.1953 33.4219 49.7344C30.5052 47.1823 26.5404 45.9062 21.5273 45.9062C20.3424 45.9062 19.2031 45.9518 18.1094 46.043C17.0156 46.1341 16.013 46.2253 15.1016 46.3164L14.1445 38.25C19.8867 37.612 24.444 35.9714 27.8164 33.3281C31.1888 30.6849 32.875 27.4492 32.875 23.6211C32.875 20.6133 31.8268 18.2435 29.7305 16.5117C27.7253 14.7799 24.9909 13.9141 21.5273 13.9141C18.5195 13.9141 15.694 14.5977 13.0508 15.9648C10.4076 17.332 8.3112 19.2461 6.76172 21.707L0.882812 17.4688C3.34375 12.3646 7.03516 8.26302 11.957 5.16406C16.8789 2.0651 22.3932 0.515625 28.5 0.515625C35.6094 0.515625 41.2148 2.29297 45.3164 5.84766C49.418 9.3112 51.4688 13.5951 51.4688 18.6992C51.4688 24.2591 49.1901 28.862 44.6328 32.5078C40.1667 36.0625 34.4245 38.7513 27.4062 40.5742Z" fill="#C6C6C6"/>
</svg>
