<svg width="137" height="115" viewBox="0 0 137 115" fill="none" xmlns="http://www.w3.org/2000/svg">
<path d="M76.8768 114.498C76.23 114.498 75.8257 114.204 75.7179 113.563C75.6371 113.029 75.5023 112.255 75.3137 111.266C75.125 110.278 74.8825 109.05 74.6129 107.581C74.5051 106.967 74.1278 106.673 73.5079 106.673H62.997C62.3771 106.673 61.9998 106.967 61.8381 107.581C61.5686 109.05 61.353 110.278 61.1643 111.266C61.0026 112.255 60.8409 113.029 60.7331 113.563C60.6522 114.177 60.2749 114.498 59.6281 114.498H52.8364C52.4591 114.498 52.1356 114.364 51.8931 114.071C51.6505 113.777 51.5966 113.456 51.7314 113.136C52.0278 111.801 52.5669 109.53 53.2945 106.379C54.0222 103.228 54.9116 99.2217 55.9627 94.3878C57.0947 89.2068 57.9571 85.0138 58.577 81.7556C59.1969 78.5241 59.6011 76.3075 59.7898 75.1591C59.8976 74.5449 60.2749 74.2511 60.8948 74.2511H75.5293C76.1761 74.2511 76.5804 74.5449 76.6882 75.1591C76.8768 76.3075 77.2811 78.5241 77.901 81.7556C78.5209 84.9871 79.3833 89.2068 80.4614 94.3878C81.5125 99.2217 82.4018 103.201 83.1295 106.379C83.8572 109.557 84.3962 111.801 84.7466 113.136C84.8274 113.483 84.7466 113.804 84.504 114.071C84.2615 114.364 83.992 114.498 83.6416 114.498H76.8768ZM64.6949 100.584H71.837C72.1873 100.584 72.4838 100.45 72.6994 100.183C72.942 99.9161 72.9959 99.6223 72.942 99.2484C72.7803 98.474 72.6186 97.6995 72.4299 96.8716C72.2682 96.0437 72.0795 95.2157 71.8909 94.3611C71.2979 91.6371 70.7589 89.1801 70.2738 86.9901C69.7887 84.7735 69.3575 82.8773 68.9801 81.2749C68.8993 80.901 68.6567 80.6874 68.2525 80.6874C67.8482 80.6874 67.5787 80.8743 67.4709 81.2749C67.1205 82.8773 66.6893 84.8002 66.2042 86.9901C65.6921 89.1801 65.1531 91.6638 64.5871 94.3611C64.3984 95.2157 64.2098 96.0437 64.0481 96.8716C63.8864 97.6995 63.7247 98.5007 63.563 99.2484C63.4821 99.5956 63.563 99.9161 63.7786 100.183C63.9942 100.45 64.3176 100.584 64.6949 100.584Z" fill="white"/>
<mask id="mask0_817_2637" style="mask-type:luminance" maskUnits="userSpaceOnUse" x="47" y="73" width="43" height="41">
<path d="M89.3708 73.3553H47.6504V113.148H89.3708V73.3553Z" fill="white"/>
</mask>
<g mask="url(#mask0_817_2637)">
<path d="M68.4298 73.3553L73.3618 88.5514H89.2361L76.3804 97.9521L81.2855 113.148L68.4298 103.747L55.601 113.148L60.5061 97.9521L47.6504 88.5514H63.5246L68.4298 73.3553Z" fill="#FF5817"/>
</g>
<mask id="mask1_817_2637" style="mask-type:luminance" maskUnits="userSpaceOnUse" x="47" y="73" width="43" height="41">
<path d="M88.9824 73.5018V113.002H47.7969V73.5018H88.9824Z" fill="white" stroke="white" stroke-width="0.292512"/>
</mask>
<g mask="url(#mask1_817_2637)">
<mask id="mask2_817_2637" style="mask-type:luminance" maskUnits="userSpaceOnUse" x="47" y="73" width="43" height="41">
<path d="M73.1953 88.5966L73.2285 88.6981H88.7871L76.2939 97.8339L76.209 97.8964L76.2412 97.9969L81.0078 112.764L68.5156 103.63L68.4297 103.566L68.3438 103.63L55.8789 112.763L60.6455 97.9969L60.6777 97.8964L60.5928 97.8339L48.0986 88.6981H63.6309L63.6641 88.5966L68.4297 73.8309L73.1953 88.5966Z" fill="white" stroke="white" stroke-width="0.292512"/>
</mask>
<g mask="url(#mask2_817_2637)">
<path d="M68.4295 73.3553L73.3346 88.5514H89.2088L76.3531 97.9521L81.2582 113.148L68.4025 103.747L55.5468 113.148L60.4519 97.9521L47.5962 88.5514H63.4704L68.4295 73.3553Z" stroke="white" stroke-width="1.17005"/>
</g>
</g>
<path d="M99.2627 98.7533C101.634 97.3913 104.006 96.1628 106.647 95.5485C110.259 94.7206 113.574 95.2548 116.565 97.4714C117.859 98.4062 117.859 98.4329 116.619 99.3409C113.574 101.531 110.313 103.107 106.54 103.774C100.422 104.869 93.6838 98.8869 93.4952 93.3052C93.3335 88.7651 95.0045 84.8125 97.2684 81.0469C97.7535 80.2457 98.0499 80.8332 98.3464 81.1537C101.581 84.3585 102.389 88.2042 101.446 92.5307C101.015 94.6939 100.098 96.6702 99.2627 98.7533Z" fill="#FF5817"/>
<path d="M43.5272 92.2904C43.7967 98.8335 36.3043 106.018 28.0303 103.267C25.1195 102.305 22.4783 100.863 19.9988 99.0739C19.352 98.5932 19.352 98.2994 19.9718 97.792C23.3677 95.0946 27.1409 94.5872 31.2105 95.789C32.9354 96.2964 34.5524 97.0442 36.1156 97.9255C36.5468 98.1659 37.032 98.8602 37.4632 98.4329C37.8674 98.059 37.2476 97.4715 37.032 97.0442C35.7652 94.2667 34.9567 91.3824 35.1993 88.2844C35.4149 85.4268 36.6277 83.0232 38.7299 81.047C39.1341 80.6731 39.3767 80.5395 39.7271 81.1271C41.8293 84.5455 43.3655 88.1776 43.5272 92.2904Z" fill="#FF5817"/>
<path d="M27.7069 89.9401C27.3296 88.1508 26.8445 86.4683 26.7097 84.7057C26.3324 79.9786 27.5452 75.9459 31.5879 73.0082C32.5042 72.3405 32.9354 72.3405 33.3397 73.5423C34.5256 77.2545 35.1724 80.9667 34.4986 84.9193C33.4745 90.9283 25.2274 96.0025 18.6244 93.0381C15.2285 91.5158 12.5064 89.2458 10.0269 86.5751C9.434 85.9342 9.81132 85.7205 10.3503 85.4267C13.7192 83.6641 17.1151 83.6641 20.5648 85.1062C22.8287 86.041 24.7692 87.4831 26.548 89.1122C26.8714 89.3793 27.087 89.7799 27.7069 89.9401Z" fill="#FF5817"/>
<path d="M109.207 89.7533C110.069 89.78 110.339 89.1924 110.743 88.8185C113.6 86.2547 116.753 84.3318 120.715 84.0648C122.925 83.9045 124.973 84.4921 126.887 85.5336C127.372 85.8007 127.426 86.041 127.075 86.4416C123.599 90.234 119.799 93.5189 114.354 93.9195C110.231 94.24 103.412 90.7414 102.415 84.5455C101.768 80.5662 102.577 76.8006 103.843 73.0617C104.113 72.2605 104.517 72.4474 105.056 72.7946C108.048 74.7976 109.827 77.5751 110.204 81.127C110.5 84.0113 110.231 86.8689 109.207 89.7533Z" fill="#FF5817"/>
<path d="M116.376 79.7917C117.94 77.6819 119.314 75.9193 121.147 74.5305C124.219 72.2071 127.588 71.3258 131.361 72.5008C131.846 72.6611 132.331 72.7412 131.9 73.4623C130.041 76.4267 127.804 79.0439 124.758 80.9134C119.152 84.3318 110.07 80.9668 108.884 73.2486C108.48 70.578 108.534 67.9607 108.911 65.2901C109.046 64.4088 109.369 64.2485 110.205 64.6224C114.598 66.6788 116.295 70.391 116.646 74.9311C116.754 76.4267 116.727 77.949 116.376 79.7917Z" fill="#FF5817"/>
<path d="M20.4296 79.5513C20.4296 76.9341 20.214 74.7174 20.6991 72.5275C21.5076 68.8954 23.4211 66.1179 26.9518 64.5689C27.6525 64.2485 27.895 64.3286 28.0298 65.1565C28.5149 67.9874 28.488 70.7649 28.0298 73.5958C26.817 81.1003 16.8181 85.2665 10.3229 79.6047C8.32847 77.8688 6.63055 75.8925 5.22909 73.6492C4.77092 72.9014 5.01348 72.6877 5.71421 72.5008C9.78384 71.2456 13.2875 72.394 16.4138 75.0112C17.8422 76.2397 19.082 77.6819 20.4296 79.5513Z" fill="#FF5817"/>
<path d="M122.224 68.7352C123.653 66.1446 125.108 63.6609 127.507 61.8716C129.771 60.1624 132.304 59.3612 135.188 59.8686C135.7 59.9487 136.05 60.0288 135.781 60.6698C134.433 63.9547 132.681 66.9191 129.852 69.2159C125.566 72.7145 117.373 71.2189 114.759 65.9577C113.25 62.9399 112.684 59.7618 112.657 56.4502C112.657 55.7558 112.899 55.649 113.546 55.8092C117.319 56.7172 119.637 59.1475 120.985 62.6461C121.685 64.6224 122.063 66.6521 122.224 68.7352Z" fill="#FF5817"/>
<path d="M14.7425 68.922C14.9581 67.4532 15.0659 66.3048 15.3354 65.1564C16.3056 60.8032 18.3809 57.3314 23.0165 55.9426C24.0406 55.6221 24.4988 55.7023 24.391 56.9308C24.2023 59.1741 24.0406 61.4442 23.286 63.5807C21.9923 67.3463 19.6476 69.9636 15.524 70.8449C11.1849 71.7796 7.78906 70.3909 5.01308 67.1861C3.39601 65.3166 2.29101 63.1534 1.32077 60.91C0.970401 60.1088 1.26686 59.9486 1.99455 59.8685C6.27979 59.3077 9.40613 61.2305 11.9934 64.3552C13.0445 65.6638 13.8261 67.1594 14.7425 68.922Z" fill="#FF5817"/>
<path d="M124.731 57.5185C127.184 52.2573 130.229 47.9309 137.156 48.5451C135.97 52.4443 134.38 55.9696 131.011 58.3731C127.184 61.1239 119.557 60.4028 116.727 54.3939C115.622 52.0437 115.083 49.5333 114.786 46.9694C114.678 46.0614 115.029 45.9279 115.81 46.0881C119.341 46.7558 121.605 48.8923 123.06 52.017C123.896 53.7262 124.3 55.5957 124.731 57.5185Z" fill="#FF5817"/>
<path d="M12.2627 57.9458C12.6669 56.1831 12.8825 54.6608 13.4216 53.192C14.7691 49.6133 17.0061 46.9961 20.9409 46.1148C22.019 45.8744 22.3155 46.088 22.1807 47.2631C21.8303 49.9338 21.2374 52.4709 19.9976 54.8745C17.033 60.6698 8.08521 61.7648 3.79997 56.3701C2.129 54.287 0.970097 51.9902 0.13461 49.4798C-0.134902 48.7053 0.0537563 48.4649 0.862292 48.4382C4.90497 48.2513 7.7618 50.1741 9.94485 53.3255C10.8612 54.6876 11.5619 56.1831 12.2627 57.9458Z" fill="#FF5817"/>
<path d="M11.6436 46.4621C12.6677 43.8715 13.6919 41.7617 15.4976 40.1326C17.1416 38.6637 19.0282 37.9427 21.2652 38.0228C21.9389 38.0495 22.1546 38.2898 21.9389 38.9308C20.9957 41.7884 19.7559 44.4591 17.3033 46.4086C14.0692 48.9458 8.5981 48.3582 6.01079 45.1801C4.04335 42.7766 3.36957 39.8922 3.0192 36.9278C2.9114 36.0732 3.53128 36.2602 3.98945 36.3403C6.60371 36.8477 8.5442 38.2899 9.86481 40.5866C10.8081 42.3225 11.3202 44.192 11.6436 46.4621Z" fill="#FF5817"/>
<path d="M125.217 46.1414C125.621 44.7259 125.917 43.4974 126.349 42.3224C127.481 39.3312 129.421 37.168 132.709 36.4202C133.706 36.1798 134.003 36.4202 133.868 37.4083C133.599 39.7318 132.979 41.9218 131.847 43.9782C129.098 48.8922 121.417 49.4797 117.967 44.8061C116.646 43.0167 115.703 41.0939 115.029 39.0107C114.814 38.2897 115.002 38.1027 115.73 38.076C119.207 37.9959 121.551 39.7318 123.357 42.4559C124.139 43.5242 124.624 44.7527 125.217 46.1414Z" fill="#FF5817"/>
<path d="M124.138 36.4737C124.38 34.8446 124.488 33.349 124.973 31.9335C125.755 29.7436 127.129 28.0611 129.339 27.1798C130.66 26.6724 130.876 26.7792 130.822 28.1145C130.768 29.7436 130.552 31.3727 130.094 32.9484C128.477 38.4767 121.065 40.266 117.077 35.7259C115.918 34.4173 115.028 32.9484 114.247 31.3727C113.842 30.5448 114.166 30.438 114.92 30.3579C118.235 29.984 120.58 31.5597 122.494 34.0167C123.087 34.7644 123.545 35.5656 124.138 36.4737Z" fill="#FF5817"/>
<path d="M12.6948 36.6338C13.5572 35.3786 14.1771 34.3905 14.9048 33.4825C16.7375 31.2391 19.0553 30.0373 22.0469 30.3845C22.505 30.4379 23.071 30.4913 22.7745 31.1323C21.2653 34.3104 19.4595 37.2748 15.6864 38.1828C12.6678 38.9039 9.13723 37.3549 7.65491 34.6843C6.44211 32.4943 6.11869 30.0907 6.17259 27.6337C6.17259 26.8592 6.57686 26.8592 7.11589 27.0195C9.02942 27.6337 10.4578 28.8355 11.4011 30.5981C12.3444 32.3875 12.6948 34.3104 12.6948 36.6338Z" fill="#FF5817"/>
<path d="M121.739 28.1412C121.82 26.6456 121.605 25.1768 122.036 23.788C122.521 22.1856 123.356 20.9037 124.839 20.0758C125.566 19.6752 125.971 19.5417 126.132 20.6366C126.375 22.1856 126.375 23.7346 126.025 25.2569C125.135 29.1827 120.58 31.159 117.05 29.1827C115.46 28.3014 114.301 26.9394 113.25 25.4972C112.738 24.7762 113.007 24.5091 113.735 24.3489C116.026 23.8414 117.966 24.5091 119.664 26.0314C120.392 26.6456 121.012 27.3667 121.739 28.1412Z" fill="#FF5817"/>
<path d="M15.5247 27.9542C16.9531 26.0047 18.678 24.4557 21.2653 24.1886C21.3192 24.1886 21.3462 24.1619 21.4001 24.1619C22.2895 24.1619 23.4753 24.0017 23.9065 24.696C24.2838 25.2836 23.2597 26.0047 22.8015 26.6456C22.2086 27.4468 21.4809 28.0878 20.6993 28.6753C17.034 31.3727 12.021 29.5833 10.943 25.2035C10.4848 23.3607 10.5657 21.5447 11.0508 19.7019C13.9615 20.5565 15.363 23.0135 15.2552 26.9394C15.0935 27.7673 15.1204 27.8207 15.5247 27.9542Z" fill="#FF5817"/>
<path d="M118.774 21.0107C118.936 19.5952 118.505 18.2866 118.774 16.978C119.125 15.3756 119.852 14.0937 121.227 13.1856C121.739 12.8385 121.954 12.8919 122.143 13.5061C122.655 15.2688 122.898 17.0848 122.493 18.8741C121.847 21.8653 118.397 23.8148 115.405 22.9869C113.384 22.3994 111.955 21.0107 110.581 19.5151C110.042 18.9275 110.527 18.794 110.958 18.6071C112.926 17.7792 114.731 18.2065 116.456 19.2747C117.265 19.7555 117.939 20.3697 118.774 21.0107Z" fill="#FF5817"/>
<path d="M17.8426 21.518C18.5163 20.9037 18.9206 20.5031 19.3518 20.1293C20.4299 19.1678 21.6966 18.5002 23.125 18.2331C24.3378 18.0194 25.8471 18.0194 26.44 19.0076C26.8443 19.7019 25.4697 20.5031 24.769 21.1174C22.1817 23.4142 19.8909 23.7346 17.1957 22.2925C15.2552 21.2509 14.4467 19.5951 14.285 17.5387C14.1772 16.2835 14.4737 15.0817 14.7162 13.8799C14.9588 12.6247 15.4709 12.8918 16.1985 13.4793C18.3546 15.2687 18.5163 17.6188 18.1929 20.1293C18.1121 20.5031 18.0043 20.8236 17.8426 21.518Z" fill="#FF5817"/>
<path d="M115.486 15.4022C114.596 12.0372 114.246 9.15288 117.345 7.01636C118.235 8.8057 118.693 10.595 118.531 12.4912C118.289 15.6426 114.812 17.9126 111.659 17.0046C110.068 16.5506 108.802 15.5892 107.589 14.5209C106.996 13.9868 107.319 13.7197 107.831 13.4526C109.287 12.7316 110.742 12.7049 112.251 13.2924C113.33 13.7197 114.327 14.3072 115.486 15.4022Z" fill="#FF5817"/>
<path d="M21.4804 15.2953C22.9896 14.1202 24.3102 13.2389 25.9543 12.9719C26.1699 12.9452 26.3855 12.865 26.6011 12.865C27.733 12.8917 29.1614 12.9185 29.5657 13.9333C29.8352 14.601 28.5146 15.2686 27.76 15.7761C25.6847 17.1648 23.5286 17.9393 21.1569 16.4704C18.7044 14.9481 17.9228 12.9185 18.5966 9.82049C18.6505 9.52672 18.7044 9.20624 18.8391 8.91247C19.1087 8.32492 19.1087 7.28337 19.6746 7.22995C20.4023 7.14983 20.8874 8.03115 21.2917 8.6454C22.3158 10.2211 22.1811 11.9303 21.8846 13.6662C21.8038 14.1202 21.669 14.5743 21.4804 15.2953Z" fill="#FF5817"/>
<path d="M36.5197 0.660114C35.253 3.19724 33.7706 5.36047 31.372 6.77592C30.6713 7.20322 29.9166 7.47029 29.135 7.65723C28.5691 7.79076 27.8683 8.00442 27.4641 7.60382C27.0867 7.20322 27.5719 6.61568 27.7605 6.13496C29.4045 2.20909 32.6387 0.152689 36.5197 0.660114Z" fill="#FF5817"/>
<path d="M101.769 0.526621C105.326 0.633447 108.695 3.49105 109.558 7.01631C109.773 7.87092 109.261 7.79081 108.776 7.7641C106.593 7.63057 104.895 6.5623 103.413 5.06674C102.443 4.07859 101.634 2.95692 100.987 1.72842C100.799 1.38123 100.394 1.03405 100.637 0.660154C100.906 0.366382 101.418 0.553328 101.769 0.526621Z" fill="#FF5817"/>
<path d="M111.794 10.1411C111.012 8.37843 110.446 6.80274 111.228 5.09352C111.47 4.58609 111.713 3.89172 112.306 3.89172C112.791 3.89172 112.899 4.58609 113.114 5.0134C114.435 7.76417 114.004 9.92741 111.875 11.3696C110.285 12.4645 106.727 11.9304 105.541 10.4615C105.164 10.0075 105.514 9.82058 105.784 9.63363C106.997 8.83244 108.317 8.80573 109.638 9.23304C110.339 9.44669 110.958 9.79387 111.794 10.1411Z" fill="#FF5817"/>
<path d="M24.9308 10.3014C26.3323 9.63374 27.3834 9.04619 28.5962 8.99278C29.7551 8.96607 31.1835 9.04619 31.5069 10.0877C31.7225 10.7554 30.2402 11.2094 29.4047 11.5566C27.6798 12.3044 26.0358 12.2777 24.5535 10.9157C23.0712 9.58032 22.8286 8.00464 23.3946 6.18859C23.4485 5.97494 23.5294 5.76129 23.6102 5.57434C23.9606 4.96009 24.0145 3.785 24.7961 3.89183C25.5777 4.02536 25.928 5.09362 26.0358 5.92152C26.2514 7.41709 25.9819 8.77913 24.9308 10.3014Z" fill="#FF5817"/>
<path d="M15.5252 27.9543C15.3904 28.168 15.2826 28.7288 15.0401 28.0611C14.9323 27.7139 14.9323 27.2599 15.2557 26.9395C15.4174 27.2599 15.1479 27.6872 15.5252 27.9543Z" fill="#FF5817"/>
<path d="M107.544 48.4854V40.2531H109.065V47.0504H112.149V48.4854H107.544Z" fill="white"/>
<path d="M100.99 48.4854H99.2559L101.899 40.2531H103.985L106.624 48.4854H104.889L102.972 42.1343H102.912L100.99 48.4854ZM100.882 45.2496H104.979V46.6082H100.882V45.2496Z" fill="white"/>
<path d="M98.3343 40.2531V48.4854H96.9267L93.5733 43.304H93.5168V48.4854H91.8872V40.2531H93.3174L96.6444 45.4305H96.7121V40.2531H98.3343Z" fill="white"/>
<path d="M90.0457 44.3692C90.0457 45.2431 89.9034 45.9865 89.6188 46.5995C89.3364 47.2125 88.951 47.6807 88.4625 48.0042C87.9762 48.325 87.4294 48.4854 86.8222 48.4854C86.2104 48.4854 85.6614 48.3237 85.1751 48.0003C84.6888 47.6768 84.3045 47.2086 84.0222 46.5956C83.7398 45.9826 83.5986 45.2405 83.5986 44.3692C83.5986 43.4954 83.7398 42.752 84.0222 42.139C84.3045 41.526 84.6888 41.0591 85.1751 40.7382C85.6614 40.4148 86.2104 40.2531 86.8222 40.2531C87.4294 40.2531 87.9762 40.4148 88.4625 40.7382C88.951 41.0591 89.3364 41.526 89.6188 42.139C89.9034 42.752 90.0457 43.4954 90.0457 44.3692ZM88.5701 44.3692C88.5701 43.8032 88.4972 43.3259 88.3516 42.9372C88.2082 42.5485 88.0054 42.2538 87.7432 42.0529C87.481 41.8521 87.174 41.7516 86.8222 41.7516C86.4703 41.7516 86.1633 41.8521 85.9012 42.0529C85.639 42.2538 85.435 42.5485 85.2894 42.9372C85.146 43.3259 85.0743 43.8032 85.0743 44.3692C85.0743 44.9353 85.146 45.4126 85.2894 45.8013C85.435 46.19 85.639 46.4847 85.9012 46.6856C86.1633 46.8864 86.4703 46.9869 86.8222 46.9869C87.174 46.9869 87.481 46.8864 87.7432 46.6856C88.0054 46.4847 88.2082 46.19 88.3516 45.8013C88.4972 45.4126 88.5701 44.9353 88.5701 44.3692Z" fill="white"/>
<path d="M81.7575 40.2531V48.4854H79.9155V40.2531H81.7575Z" fill="white"/>
<path d="M72.5469 41.6881V40.2531H78.9939V41.6881H76.5907V48.4854H74.9501V41.6881H72.5469Z" fill="white"/>
<path d="M67.8337 48.4854H66.0991L68.7421 40.2531H70.828L73.4672 48.4854H71.7326L69.8149 42.1343H69.7551L67.8337 48.4854ZM67.7253 45.2496H71.8224V46.6082H67.7253V45.2496Z" fill="white"/>
<path d="M65.179 40.2531V48.4854H63.7714L60.418 43.304H60.3616V48.4854H58.7319V40.2531H60.1621L63.4891 45.4305H63.5569V40.2531H65.179Z" fill="white"/>
<path d="M51.3628 48.4854V40.2531H54.5883C55.2057 40.2531 55.7327 40.3643 56.1691 40.5867C56.6083 40.8064 56.9423 41.1186 57.1711 41.5233C57.4027 41.9253 57.5184 42.3982 57.5184 42.9422C57.5184 43.4889 57.4013 43.9592 57.1671 44.3532C56.9329 44.7444 56.5936 45.0446 56.1492 45.2536C55.7074 45.4626 55.1725 45.5671 54.5444 45.5671H52.3847V44.1683H54.265C54.595 44.1683 54.8691 44.1227 55.0873 44.0316C55.3055 43.9405 55.4679 43.8038 55.5743 43.6216C55.6834 43.4394 55.738 43.2129 55.738 42.9422C55.738 42.6689 55.6834 42.4384 55.5743 42.2509C55.4679 42.0633 55.3042 41.9212 55.0833 41.8248C54.8651 41.7256 54.5896 41.676 54.257 41.676H53.0913V48.4854H51.3628ZM55.7779 44.7391L57.8098 48.4854H55.9017L53.9137 44.7391H55.7779Z" fill="white"/>
<path d="M44.9165 48.4854V40.2531H50.4266V41.6881H46.6454V43.6497H50.1431V45.0848H46.6454V47.0504H50.4425V48.4854H44.9165Z" fill="white"/>
<path d="M37.5479 41.6881V40.2531H43.9949V41.6881H41.5916V48.4854H39.9511V41.6881H37.5479Z" fill="white"/>
<path d="M36.6277 40.2531V48.4854H35.2201L31.8668 43.304H31.8103V48.4854H30.1807V40.2531H31.6108L34.9379 45.4305H35.0056V40.2531H36.6277Z" fill="white"/>
<path d="M28.3376 40.2531V48.4854H26.4956V40.2531H28.3376Z" fill="white"/>
<path d="M103.256 53.2665V59.6728H102.075L99.2624 55.6407H99.215V59.6728H97.8481V53.2665H99.0477L101.838 57.2955H101.895V53.2665H103.256Z" fill="white"/>
<path d="M96.8364 56.4696C96.8364 57.1682 96.7028 57.7625 96.4355 58.2526C96.1703 58.7427 95.8083 59.117 95.3496 59.3756C94.8929 59.6321 94.3794 59.7604 93.8091 59.7604C93.2345 59.7604 92.7189 59.6311 92.2623 59.3725C91.8056 59.1139 91.4447 58.7396 91.1795 58.2495C90.9143 57.7594 90.7817 57.1661 90.7817 56.4696C90.7817 55.771 90.9143 55.1766 91.1795 54.6866C91.4447 54.1965 91.8056 53.8232 92.2623 53.5667C92.7189 53.3081 93.2345 53.1788 93.8091 53.1788C94.3794 53.1788 94.8929 53.3081 95.3496 53.5667C95.8083 53.8232 96.1703 54.1965 96.4355 54.6866C96.7028 55.1766 96.8364 55.771 96.8364 56.4696ZM95.4506 56.4696C95.4506 56.0171 95.3822 55.6354 95.2454 55.3247C95.1107 55.014 94.9202 54.7783 94.674 54.6178C94.4278 54.4572 94.1395 54.3769 93.8091 54.3769C93.4787 54.3769 93.1903 54.4572 92.9441 54.6178C92.6979 54.7783 92.5064 55.014 92.3696 55.3247C92.2349 55.6354 92.1676 56.0171 92.1676 56.4696C92.1676 56.9221 92.2349 57.3038 92.3696 57.6145C92.5064 57.9252 92.6979 58.1609 92.9441 58.3214C93.1903 58.482 93.4787 58.5623 93.8091 58.5623C94.1395 58.5623 94.4278 58.482 94.674 58.3214C94.9202 58.1609 95.1107 57.9252 95.2454 57.6145C95.3822 57.3038 95.4506 56.9221 95.4506 56.4696Z" fill="white"/>
<path d="M89.7697 53.2665V59.6728H88.4028V53.2665H89.7697Z" fill="white"/>
<path d="M82.2202 54.3832V53.2665H87.5299V54.3832H85.5506V59.6728H84.1995V54.3832H82.2202Z" fill="white"/>
<path d="M77.7211 59.6726H76.2563L78.4882 53.2662H80.2496L82.4783 59.6726H81.0136L79.3942 54.7302H79.3437L77.7211 59.6726ZM77.6295 57.1545H81.0893V58.2118H77.6295V57.1545Z" fill="white"/>
<path d="M75.7471 55.5093H74.3644C74.3392 55.332 74.2876 55.1746 74.2098 55.0369C74.1319 54.8972 74.0319 54.7783 73.9099 54.6803C73.7878 54.5823 73.6468 54.5072 73.4869 54.4551C73.329 54.403 73.1575 54.3769 72.9723 54.3769C72.6377 54.3769 72.3462 54.4593 72.0979 54.624C71.8496 54.7867 71.657 55.0244 71.5202 55.3372C71.3834 55.6479 71.315 56.0254 71.315 56.4696C71.315 56.9263 71.3834 57.31 71.5202 57.6207C71.6591 57.9315 71.8527 58.1661 72.101 58.3246C72.3494 58.483 72.6366 58.5623 72.9628 58.5623C73.1459 58.5623 73.3153 58.5383 73.4711 58.4903C73.6289 58.4424 73.7689 58.3725 73.8909 58.2808C74.013 58.1869 74.114 58.0733 74.194 57.9398C74.2761 57.8063 74.3329 57.6541 74.3644 57.4831L75.7471 57.4894C75.7113 57.7834 75.6219 58.067 75.4788 58.3402C75.3378 58.6113 75.1473 58.8542 74.9074 59.069C74.6696 59.2818 74.3855 59.4507 74.0551 59.5758C73.7268 59.6988 73.3553 59.7604 72.9407 59.7604C72.3641 59.7604 71.8485 59.6311 71.3939 59.3725C70.9415 59.1139 70.5837 58.7396 70.3206 58.2495C70.0597 57.7594 69.9292 57.1661 69.9292 56.4696C69.9292 55.771 70.0618 55.1766 70.327 54.6866C70.5921 54.1965 70.952 53.8232 71.4066 53.5667C71.8611 53.3081 72.3725 53.1788 72.9407 53.1788C73.3153 53.1788 73.6626 53.231 73.9825 53.3352C74.3045 53.4395 74.5896 53.5917 74.838 53.7919C75.0863 53.9901 75.2883 54.233 75.4441 54.5208C75.6019 54.8086 75.7029 55.1381 75.7471 55.5093Z" fill="white"/>
<path d="M68.9177 53.2665V59.6728H67.5508V53.2665H68.9177Z" fill="white"/>
<path d="M62.3511 59.6726V53.2662H66.6316V54.383H63.7179V55.9095H66.3475V57.0262H63.7179V59.6726H62.3511Z" fill="white"/>
<path d="M61.2272 53.2662V59.6726H59.8604V53.2662H61.2272Z" fill="white"/>
<path d="M53.6768 54.3832V53.2665H58.9864V54.3832H57.0071V59.6728H55.656V54.3832H53.6768Z" fill="white"/>
<path d="M48.0879 59.6728V53.2665H50.6385C51.1268 53.2665 51.5435 53.353 51.8886 53.5261C52.2359 53.6971 52.5 53.9401 52.681 54.255C52.8641 54.5678 52.9556 54.9358 52.9556 55.3592C52.9556 55.7846 52.863 56.1506 52.6778 56.4571C52.4926 56.7616 52.2243 56.9952 51.8728 57.1578C51.5235 57.3205 51.1005 57.4018 50.6038 57.4018H48.896V56.3132H50.3829C50.6438 56.3132 50.8606 56.2778 51.0331 56.2069C51.2057 56.136 51.3341 56.0296 51.4183 55.8878C51.5046 55.746 51.5477 55.5698 51.5477 55.3592C51.5477 55.1465 51.5046 54.9671 51.4183 54.8211C51.3341 54.6752 51.2047 54.5646 51.03 54.4896C50.8574 54.4124 50.6396 54.3738 50.3765 54.3738H49.4548V59.6728H48.0879ZM51.5793 56.7574L53.186 59.6728H51.6771L50.1051 56.7574H51.5793Z" fill="white"/>
<path d="M42.6455 59.6728V53.2665H47.0018V54.3832H44.0124V55.9097H46.7777V57.0265H44.0124V58.5561H47.0145V59.6728H42.6455Z" fill="white"/>
<path d="M41.6665 55.5091H40.2839C40.2586 55.3319 40.2071 55.1744 40.1292 55.0368C40.0513 54.8971 39.9514 54.7782 39.8293 54.6802C39.7072 54.5822 39.5662 54.5071 39.4063 54.455C39.2485 54.4028 39.0769 54.3768 38.8917 54.3768C38.5571 54.3768 38.2657 54.4591 38.0173 54.6239C37.769 54.7866 37.5764 55.0243 37.4396 55.3371C37.3028 55.6478 37.2344 56.0253 37.2344 56.4695C37.2344 56.9262 37.3028 57.3099 37.4396 57.6206C37.5785 57.9313 37.7721 58.1659 38.0205 58.3244C38.2688 58.4829 38.5561 58.5622 38.8823 58.5622C39.0654 58.5622 39.2348 58.5382 39.3905 58.4902C39.5483 58.4423 39.6883 58.3724 39.8104 58.2806C39.9324 58.1868 40.0334 58.0731 40.1134 57.9397C40.1955 57.8062 40.2523 57.654 40.2839 57.483L41.6665 57.4892C41.6308 57.7833 41.5413 58.0669 41.3982 58.3401C41.2572 58.6112 41.0667 58.8541 40.8268 59.0689C40.589 59.2816 40.3049 59.4506 39.9745 59.5757C39.6462 59.6987 39.2748 59.7602 38.8602 59.7602C38.2835 59.7602 37.7679 59.6309 37.3134 59.3723C36.8609 59.1138 36.5031 58.7394 36.2401 58.2494C35.9791 57.7593 35.8486 57.166 35.8486 56.4695C35.8486 55.7709 35.9812 55.1765 36.2464 54.6865C36.5116 54.1964 36.8714 53.8231 37.326 53.5666C37.7806 53.308 38.292 53.1787 38.8602 53.1787C39.2348 53.1787 39.582 53.2308 39.9019 53.3351C40.2239 53.4394 40.5091 53.5916 40.7574 53.7918C41.0057 53.9899 41.2078 54.2329 41.3635 54.5207C41.5213 54.8085 41.6223 55.1379 41.6665 55.5091Z" fill="white"/>
</svg>
