<svg width="94" height="40" viewBox="0 0 94 40" fill="none" xmlns="http://www.w3.org/2000/svg">
<g clip-path="url(#clip0_605_15314)">
<path d="M5.08668 10.5877C5.08668 11.241 5.35373 11.7755 5.85815 12.1615C6.36257 12.5476 7.04502 12.9039 7.84615 13.1712C8.67696 13.4681 9.53744 13.7651 10.4573 14.0917C11.3771 14.4184 12.2376 14.8341 13.0684 15.3093C13.8992 15.8141 14.552 16.4674 15.0564 17.3286C15.5608 18.16 15.8278 19.2588 15.8278 20.5951C15.8278 21.9611 15.5905 23.1192 15.0861 24.0992C14.5816 25.0791 13.7805 25.8215 12.6233 26.3263C11.4958 26.8312 9.95285 27.0984 8.02418 27.0984C6.18454 27.0984 4.70095 26.8015 3.54375 26.2076C2.38656 25.6136 1.52608 24.8119 0.962314 23.8616C0.398551 22.8816 0.0721625 21.872 -0.0168527 20.7733C-0.0465244 20.5951 0.012819 20.4466 0.131506 20.2981C0.250193 20.1496 0.428223 20.0903 0.606253 20.0903H4.37456C4.76029 20.0903 4.968 20.2684 4.99767 20.6545C5.02734 21.0405 5.14603 21.4562 5.32406 21.9314C5.50209 22.4065 5.79881 22.8223 6.21421 23.1489C6.62961 23.5052 7.19338 23.6834 7.93517 23.6834C8.79565 23.6834 9.41876 23.5349 9.80449 23.2677C10.1902 22.9707 10.4573 22.5847 10.576 22.1096C10.6946 21.6344 10.754 21.1296 10.754 20.5951C10.754 19.9121 10.4869 19.3776 9.98252 18.9618C9.44843 18.5461 8.79565 18.2194 7.96484 17.9225C7.13403 17.6255 6.27355 17.3286 5.35373 17.0019C4.43391 16.6753 3.57343 16.2595 2.77229 15.7844C1.97115 15.2796 1.2887 14.6263 0.784284 13.7651C0.250193 12.9336 0.0128186 11.8646 0.0128186 10.5283C0.0128186 9.16227 0.250192 8.00414 0.754612 7.02418C1.25903 6.04423 2.06017 5.30183 3.18769 4.79701C4.31522 4.29218 5.85815 4.02492 7.78681 4.02492C9.59679 4.02492 11.0507 4.32188 12.1782 4.91579C13.2761 5.5097 14.1069 6.31149 14.641 7.26175C15.1751 8.2417 15.4718 9.25135 15.5608 10.3501C15.5608 10.5283 15.5015 10.6767 15.3828 10.8252C15.2641 10.9737 15.1157 11.0331 14.9377 11.0331H11.1694C10.7837 11.0331 10.576 10.8252 10.5166 10.4392C10.4869 10.0531 10.4276 9.63739 10.2792 9.16226C10.1309 8.68713 9.8935 8.2714 9.50777 7.94475C9.15171 7.5884 8.58795 7.41022 7.87583 7.41022C7.01535 7.41022 6.39224 7.5587 5.97684 7.85566C5.56143 8.15262 5.32406 8.53866 5.20537 9.01379C5.14603 9.51861 5.08668 10.0531 5.08668 10.5877Z" fill="#004AAD"/>
<path d="M26.8607 4.41096C28.819 4.41096 30.3619 4.70792 31.4895 5.27214C32.617 5.83635 33.4478 6.63813 33.9225 7.67748C34.427 8.71683 34.6643 9.96404 34.6643 11.4191C34.6643 12.9039 34.427 14.1214 33.9225 15.1311C33.4181 16.1407 32.617 16.8831 31.4895 17.4176C30.3619 17.9225 28.819 18.1897 26.8607 18.1897H24.5166C24.3386 18.1897 24.1902 18.2491 24.0715 18.3679C23.9528 18.4867 23.8935 18.6352 23.9232 18.8133C23.9232 20.6842 23.9232 22.258 23.9528 23.4755C23.9825 24.7228 24.0122 25.6136 24.0419 26.1778C24.0419 26.356 23.9825 26.5045 23.8638 26.6233C23.7451 26.7421 23.5968 26.8015 23.3891 26.8015H19.6801C19.4724 26.8015 19.3241 26.7421 19.2054 26.6233C19.0867 26.5045 19.0273 26.356 19.0273 26.1778C19.057 25.4652 19.0867 24.2179 19.1164 22.4362C19.146 20.6545 19.1757 18.3679 19.1757 15.6062C19.1757 12.8148 19.146 10.5283 19.1164 8.74652C19.0867 6.96479 19.057 5.74727 19.0273 5.03457C19.0273 4.8564 19.0867 4.70792 19.2054 4.58914C19.3241 4.47035 19.4724 4.41096 19.6801 4.41096H26.8607ZM26.92 14.7747C27.7805 14.7747 28.4333 14.5966 28.819 14.2402C29.2047 13.8839 29.4421 13.4384 29.5015 12.9336C29.5608 12.3991 29.6201 11.8943 29.6201 11.4191C29.6201 10.944 29.5905 10.4392 29.5015 9.87496C29.4421 9.31074 29.2047 8.83561 28.819 8.41987C28.4333 8.00413 27.8102 7.82596 26.92 7.82596H24.576C24.3979 7.82596 24.2496 7.88535 24.1309 8.00413C24.0122 8.12291 23.9528 8.27139 23.9528 8.41987C23.9528 9.19196 23.9528 10.0531 23.9232 11.0034C23.8935 11.9536 23.8935 12.993 23.8935 14.1511C23.8935 14.3293 23.9528 14.5075 24.0715 14.6263C24.1902 14.745 24.3386 14.8044 24.5166 14.8044H26.92V14.7747Z" fill="#004AAD"/>
<path d="M51.5823 26.8015C51.2262 26.8015 51.0185 26.6233 50.9592 26.2966C50.9295 25.9997 50.8405 25.5839 50.7218 25.0197C50.6031 24.4555 50.4844 23.7725 50.3361 22.9707C50.2767 22.6441 50.069 22.4659 49.713 22.4659H43.927C43.6006 22.4659 43.3632 22.6441 43.3039 22.9707C43.1555 23.7725 43.0368 24.4555 42.9478 25.0197C42.8588 25.5839 42.7698 25.9997 42.7104 26.2966C42.6511 26.653 42.4731 26.8015 42.0873 26.8015H38.3487C38.141 26.8015 37.963 26.7124 37.8443 26.5639C37.7256 26.4154 37.6959 26.2373 37.7553 26.0294C37.9333 25.287 38.2003 24.0398 38.6157 22.258C39.0311 20.506 39.5059 18.2788 40.0993 15.5765C40.7224 12.696 41.1972 10.3501 41.5532 8.56836C41.9093 6.75692 42.117 5.5394 42.2357 4.8861C42.295 4.55945 42.5027 4.38128 42.8291 4.38128H50.8702C51.2262 4.38128 51.4339 4.55945 51.5229 4.8861C51.6416 5.5394 51.8493 6.75692 52.1757 8.56836C52.5318 10.3798 52.9769 12.7257 53.6 15.5765C54.1637 18.2491 54.6681 20.4763 55.0835 22.258C55.4989 24.0101 55.7957 25.287 55.9737 26.0294C56.0034 26.2076 55.9737 26.3857 55.855 26.5639C55.7363 26.7124 55.5583 26.8015 55.3803 26.8015H51.5823ZM44.8765 19.0509H48.7931C49.0008 19.0509 49.1492 18.9915 49.2679 18.8133C49.3866 18.6649 49.4459 18.4867 49.3866 18.3085C49.2976 17.8928 49.2085 17.4473 49.1195 16.9722C49.0305 16.5268 48.9118 16.0517 48.8228 15.5765C48.4964 14.062 48.1997 12.696 47.9327 11.4785C47.6656 10.261 47.4282 9.19197 47.2205 8.3011C47.1909 8.09323 47.0425 7.97444 46.8051 7.97444C46.5678 7.97444 46.4491 8.09323 46.3897 8.3011C46.182 9.19197 45.9743 10.261 45.6776 11.4785C45.4106 12.696 45.1138 14.062 44.7875 15.5765C44.6688 16.0517 44.5798 16.4971 44.4907 16.9722C44.4017 17.4177 44.3127 17.8631 44.2237 18.3085C44.1643 18.5164 44.2237 18.6649 44.3424 18.8133C44.4907 18.9618 44.6391 19.0509 44.8765 19.0509Z" fill="#004AAD"/>
<path d="M73.8421 26.8015H69.7771C69.599 26.8015 69.4507 26.7421 69.332 26.6233C69.2133 26.5045 69.154 26.356 69.154 26.1779V21.2484C69.154 20.7436 69.0946 20.2684 68.9166 19.823C68.7682 19.3479 68.5012 18.9618 68.1155 18.6649C67.7297 18.3679 67.166 18.1897 66.4835 18.1897H64.4658C64.2878 18.1897 64.1394 18.2491 64.0208 18.3679C63.9021 18.4867 63.8427 18.6352 63.8724 18.8133C63.8724 20.6842 63.8724 22.258 63.9021 23.4756C63.9317 24.7228 63.9614 25.6136 63.9911 26.1779C63.9911 26.356 63.9317 26.5045 63.8131 26.6233C63.6944 26.7421 63.546 26.8015 63.3383 26.8015H59.6293C59.4216 26.8015 59.2733 26.7421 59.1546 26.6233C59.0359 26.5045 58.9766 26.356 58.9766 26.1779C59.0062 25.4652 59.0359 24.2179 59.0656 22.4362C59.0952 20.6545 59.1249 18.3679 59.1249 15.6062C59.1249 12.8148 59.0952 10.5283 59.0656 8.74653C59.0359 6.96479 59.0062 5.74727 58.9766 5.03457C58.9766 4.8564 59.0359 4.70792 59.1546 4.58914C59.2733 4.47036 59.4216 4.41096 59.6293 4.41096H66.5725C67.611 4.41096 68.6199 4.50005 69.5397 4.70792C70.4892 4.88609 71.32 5.24244 72.0321 5.71757C72.7442 6.2224 73.3377 6.9054 73.7531 7.76657C74.1685 8.62774 74.3762 9.75618 74.3762 11.1222C74.3762 12.3694 74.0795 13.4087 73.5157 14.2402C72.9519 15.0717 72.2101 15.6953 71.32 16.1704C71.231 16.2001 71.2013 16.2892 71.2013 16.408C71.2013 16.5268 71.2607 16.5862 71.3497 16.6753C72.1508 17.0613 72.8333 17.6255 73.3673 18.3679C73.9014 19.1103 74.1685 20.0606 74.1685 21.2781C74.1685 22.4362 74.1982 23.4162 74.2575 24.2476C74.3168 25.0791 74.3762 25.7027 74.4652 26.1482C74.4949 26.356 74.4355 26.5045 74.3168 26.653C74.1685 26.7124 74.0201 26.8015 73.8421 26.8015ZM66.6319 7.79627H64.5252C64.3471 7.79627 64.1988 7.85566 64.0801 7.97444C63.9614 8.09322 63.9021 8.2417 63.9021 8.39018C63.9021 9.16227 63.9021 10.0234 63.8724 10.9737C63.8427 11.924 63.8427 12.9633 63.8427 14.1214C63.8427 14.2996 63.9021 14.4778 64.0208 14.5966C64.1394 14.7153 64.2878 14.7747 64.4658 14.7747H66.6319C67.344 14.7747 67.8781 14.5669 68.2638 14.1808C68.6495 13.7651 68.9166 13.29 69.0946 12.7257C69.243 12.1615 69.332 11.627 69.332 11.1519C69.332 10.2907 69.1836 9.63739 68.8572 9.16226C68.5605 8.68713 68.1748 8.33079 67.7594 8.12292C67.344 7.88535 66.9879 7.79627 66.6319 7.79627Z" fill="#004AAD"/>
<path d="M88.8236 26.8015C88.5565 26.8015 88.3785 26.6827 88.2895 26.4451L83.0079 16.3486C82.9486 16.2298 82.8299 16.1704 82.7112 16.2001C82.5628 16.2298 82.5035 16.3189 82.5035 16.4674C82.5035 19.0212 82.5332 21.0999 82.5628 22.7332C82.5925 24.3664 82.6222 25.4948 82.6518 26.1778C82.6518 26.356 82.5925 26.5045 82.4738 26.6233C82.3551 26.7421 82.2068 26.8015 81.9991 26.8015H78.3198C78.1121 26.8015 77.9637 26.7421 77.845 26.6233C77.7263 26.5045 77.667 26.356 77.667 26.1778C77.6967 25.4652 77.7263 24.2179 77.756 22.4362C77.7857 20.6545 77.8154 18.3679 77.8154 15.6062C77.8154 12.8148 77.7857 10.5283 77.756 8.74652C77.7263 6.96479 77.6967 5.74727 77.667 5.03457C77.667 4.8564 77.7263 4.70792 77.845 4.58914C77.9637 4.47035 78.1121 4.41096 78.3198 4.41096H82.0287C82.2364 4.41096 82.3848 4.47035 82.5035 4.58914C82.6222 4.70792 82.6815 4.8564 82.6815 5.03457C82.6518 5.68787 82.6222 6.72722 82.5925 8.212C82.5628 9.69678 82.5332 11.5676 82.5332 13.8542C82.5332 13.9729 82.5925 14.062 82.7409 14.1214C82.8892 14.1511 82.9782 14.1214 83.0376 14.0026L87.8741 4.76731C87.9927 4.52974 88.1708 4.41096 88.4082 4.41096H92.9183C93.1853 4.41096 93.3633 4.52975 93.482 4.73761C93.6007 4.97518 93.571 5.18305 93.4227 5.39092C92.8589 6.13331 92.0874 7.29144 91.0786 8.83561C90.0698 10.3798 88.9719 12.3397 87.7554 14.6559C87.5477 15.0123 87.5477 15.3389 87.7257 15.6359C89.0609 18.1897 90.2775 20.3278 91.3753 22.0502C92.4732 23.7428 93.304 24.99 93.8677 25.7918C94.0161 25.9997 94.0161 26.2075 93.8974 26.4451C93.7787 26.6827 93.6007 26.7718 93.3337 26.7718H88.8236V26.8015Z" fill="#004AAD"/>
<mask id="mask0_605_15314" style="mask-type:luminance" maskUnits="userSpaceOnUse" x="35" y="3" width="24" height="24">
<path d="M58.4839 3.89012H35.4883V26.0431H58.4839V3.89012Z" fill="white"/>
</mask>
<g mask="url(#mask0_605_15314)">
<path d="M46.9416 3.89012L49.6417 12.3534H58.3652L51.3033 17.5798L54.0034 26.0431L46.9416 20.8166L39.85 26.0431L42.5501 17.5798L35.4883 12.3534H44.2118L46.9416 3.89012Z" fill="#FF5817"/>
</g>
<mask id="mask1_605_15314" style="mask-type:luminance" maskUnits="userSpaceOnUse" x="35" y="3" width="24" height="24">
<path d="M58.3355 3.89012H35.4883V26.0134H58.3355V3.89012Z" fill="white"/>
</mask>
<g mask="url(#mask1_605_15314)">
<mask id="mask2_605_15314" style="mask-type:luminance" maskUnits="userSpaceOnUse" x="35" y="3" width="24" height="24">
<path d="M46.9416 3.89012L49.6417 12.3534H58.3652L51.3033 17.5798L54.0034 26.0431L46.9416 20.8166L39.85 26.0431L42.5501 17.5798L35.4883 12.3534H44.2118L46.9416 3.89012Z" fill="white"/>
</mask>
<g mask="url(#mask2_605_15314)">
<path d="M56.2589 29.1611L46.942 22.2717L37.6251 29.1611L41.1857 18.0252L31.8984 11.1656H43.3814L46.942 0L50.5026 11.1656H61.9856L52.6983 18.0252L56.2589 29.1611ZM39.079 13.5412L43.9452 17.1344L42.1055 22.8953L46.942 19.3319L51.7785 22.8953L49.9388 17.1344L54.805 13.5412H48.8113L46.9717 7.80995L45.1024 13.5412H39.079Z" fill="#004AAD"/>
</g>
</g>
<path d="M7.13684 32.6634C7.13684 32.8713 7.13684 33.0494 7.10717 33.2573C7.10717 33.4355 7.10717 33.6434 7.07749 33.8809C7.07749 34.1185 7.04782 34.3857 7.04782 34.7124C7.04782 35.039 7.04782 35.336 7.07749 35.5439C7.07749 35.7814 7.10717 35.9596 7.10717 36.1675C7.10717 36.3457 7.13684 36.5535 7.13684 36.7614C7.13684 37.385 7.01815 37.9492 6.81045 38.4243C6.57307 38.8995 6.21701 39.2855 5.68292 39.5528C5.14883 39.82 4.46638 39.9685 3.57623 39.9685C2.68608 39.9685 1.97396 39.82 1.43987 39.4934C0.905776 39.1667 0.549716 38.7807 0.342013 38.2759C0.134311 37.771 0.015625 37.2662 0.015625 36.7317C0.015625 36.5238 0.015625 36.316 0.015625 36.1378C0.015625 35.9596 0.0452963 35.7517 0.0452963 35.5142C0.074968 35.2766 0.0749675 35.0094 0.0749675 34.6827C0.0749675 34.356 0.074968 34.0591 0.0452963 33.8512C0.0156245 33.6137 0.015625 33.4058 0.015625 33.2276C0.015625 33.0494 0.015625 32.8416 0.015625 32.6337C0.015625 32.0101 0.134311 31.4459 0.371685 30.9707C0.609058 30.4956 0.96512 30.1096 1.49921 29.8126C2.00363 29.5157 2.71575 29.3969 3.6059 29.3969C4.49605 29.3969 5.20818 29.5454 5.71259 29.872C6.24669 30.169 6.60275 30.5847 6.81045 31.0895C7.01815 31.6241 7.13684 32.1289 7.13684 32.6634ZM3.54656 38.4243C3.93229 38.4243 4.19934 38.3353 4.40704 38.1571C4.58507 37.9789 4.70376 37.771 4.7631 37.5038C4.82244 37.2365 4.85212 36.999 4.85212 36.7317V32.6634C4.85212 32.5743 4.85211 32.4555 4.82244 32.2774C4.79277 32.0992 4.7631 31.8913 4.67408 31.7131C4.61474 31.5053 4.49605 31.3568 4.31802 31.2083C4.13999 31.0598 3.93229 31.0004 3.6059 31.0004C3.22017 31.0004 2.92345 31.0895 2.74542 31.2677C2.56739 31.4459 2.44871 31.6537 2.38936 31.921C2.33002 32.1883 2.33002 32.4258 2.33002 32.6634V36.7317C2.33002 36.8208 2.33002 36.9396 2.35969 37.1177C2.38936 37.2959 2.41903 37.4741 2.47838 37.682C2.56739 37.8898 2.68608 38.0383 2.83444 38.1868C3.01247 38.3353 3.24984 38.4243 3.54656 38.4243Z" fill="#FF5817"/>
<path d="M13.226 37.9789C13.226 38.068 13.2557 38.1274 13.2853 38.1868C13.3447 38.2462 13.404 38.2759 13.493 38.2759H16.3415C16.4305 38.2759 16.4899 38.3056 16.5492 38.365C16.6086 38.4243 16.6382 38.4837 16.6382 38.5728V39.5528C16.6382 39.6419 16.6086 39.7013 16.5492 39.7606C16.4899 39.82 16.4305 39.8497 16.3415 39.8497H11.327C11.238 39.8497 11.1786 39.82 11.1193 39.7606C11.0599 39.7013 11.0303 39.6419 11.0303 39.5528V29.872C11.0303 29.7829 11.0599 29.7235 11.1193 29.6641C11.1786 29.6047 11.238 29.5751 11.327 29.5751H13.048C13.137 29.5751 13.1963 29.6047 13.2557 29.6641C13.315 29.7235 13.3447 29.7829 13.3447 29.872C13.3447 30.1393 13.3447 30.555 13.315 31.1192C13.315 31.6834 13.2853 32.3367 13.2853 33.0791C13.2853 33.8215 13.2557 34.6233 13.2557 35.4845C13.226 36.316 13.226 37.1771 13.226 37.9789Z" fill="#FF5817"/>
<path d="M26.557 32.7228C26.2603 33.3761 26.0229 33.9403 25.8449 34.4154C25.6668 34.8609 25.5185 35.2172 25.4295 35.4548C25.3701 35.6033 25.3404 35.7517 25.3404 35.9002C25.3404 36.1081 25.3108 36.3159 25.3108 36.5832C25.3108 36.8505 25.3108 37.1474 25.3108 37.5038C25.3108 38.0086 25.3108 38.4243 25.3404 38.751C25.3701 39.0776 25.3701 39.3449 25.3701 39.5231C25.3701 39.6122 25.3701 39.6716 25.3108 39.7309C25.2514 39.7903 25.1624 39.82 25.1031 39.82H23.4415C23.3524 39.82 23.2931 39.7903 23.2338 39.7309C23.1744 39.6716 23.1447 39.6122 23.1744 39.5231C23.1744 39.3449 23.2041 39.0776 23.2041 38.751C23.2338 38.4243 23.2338 38.0086 23.2338 37.5038C23.2338 37.1474 23.2338 36.8505 23.2041 36.5832C23.2041 36.3159 23.2041 36.0784 23.1744 35.9002C23.1744 35.7517 23.1447 35.6033 23.0854 35.4548C22.9964 35.2172 22.848 34.8609 22.67 34.4154C22.492 33.97 22.2546 33.4058 21.9579 32.7228C21.6612 32.0695 21.4238 31.5053 21.1864 31.0598C20.9787 30.6144 20.8007 30.258 20.682 29.9908C20.6226 29.9017 20.6226 29.8126 20.7117 29.7235C20.771 29.6344 20.86 29.575 20.949 29.575H22.581C22.7293 29.575 22.8183 29.6344 22.848 29.7829C22.9074 29.9908 23.026 30.3471 23.1744 30.8223C23.3524 31.3271 23.5601 31.9507 23.8272 32.6931C23.9459 33.0197 24.0646 33.3167 24.1536 33.6136C24.1832 33.673 24.2129 33.7027 24.2723 33.7027C24.3316 33.7027 24.3613 33.673 24.3909 33.6136C24.5096 33.3167 24.6283 33.0197 24.747 32.6931C25.0141 31.921 25.2218 31.2974 25.3998 30.8223C25.5778 30.3174 25.6668 29.9908 25.7262 29.7829C25.7855 29.6344 25.8745 29.575 25.9932 29.575H27.6252C27.7142 29.575 27.8032 29.6344 27.8625 29.7235C27.9219 29.8126 27.9219 29.9017 27.8922 29.9908C27.7735 30.2283 27.5955 30.5847 27.3878 31.0598C27.1207 31.5053 26.8537 32.0695 26.557 32.7228Z" fill="#FF5817"/>
<path d="M41.9514 29.5751C42.0405 29.5751 42.0998 29.6047 42.1591 29.6641C42.2185 29.7235 42.2482 29.7829 42.2482 29.872C42.2482 30.1987 42.2185 30.7629 42.1888 31.5944C42.1591 32.3961 42.1591 33.4355 42.1591 34.7124C42.1591 35.9893 42.1591 37.0287 42.1888 37.8304C42.2185 38.6322 42.2185 39.1964 42.2482 39.5231C42.2482 39.6122 42.2185 39.6716 42.1591 39.731C42.0998 39.82 42.0405 39.8497 41.9514 39.8497H40.2305C40.1415 39.8497 40.0821 39.82 40.0228 39.7606C39.9634 39.7013 39.9338 39.6419 39.9634 39.5528C39.9634 39.2261 39.9931 38.6619 39.9931 37.8601C40.0228 37.0287 40.0228 35.9893 40.0228 34.7421C40.0228 34.1185 40.0228 33.5543 40.0228 33.0791C40.0228 32.5743 40.0228 32.1289 39.9931 31.7131C39.9931 31.624 39.9634 31.5944 39.8744 31.5944C39.8151 31.5944 39.7557 31.624 39.7261 31.7131C39.6667 32.0992 39.5777 32.5743 39.4887 33.0791C39.3997 33.584 39.3107 34.1482 39.2216 34.7718C39.0139 36.0784 38.8359 37.1474 38.7172 37.9492C38.5985 38.7807 38.5392 39.3449 38.5095 39.6419C38.4798 39.82 38.3908 39.8794 38.2128 39.8794H35.7797C35.6017 39.8794 35.5127 39.7903 35.483 39.6419C35.4533 39.3449 35.3643 38.7807 35.2456 37.9492C35.1269 37.1177 34.9786 36.0487 34.7412 34.7718C34.6522 34.1482 34.5632 33.584 34.4742 33.0791C34.3852 32.5743 34.2961 32.0992 34.2368 31.7131C34.2368 31.624 34.1774 31.5944 34.1181 31.5944C34.0588 31.5944 33.9994 31.6537 33.9994 31.7131C33.9994 32.0992 33.9697 32.5743 33.9697 33.0791C33.9697 33.584 33.9697 34.1482 33.9697 34.7421C33.9697 36.019 33.9697 37.0583 33.9994 37.8601C34.0291 38.6619 34.0291 39.2261 34.0588 39.5528C34.0588 39.6419 34.0291 39.7013 33.9697 39.7606C33.9104 39.82 33.8511 39.8497 33.762 39.8497H32.0708C31.9817 39.8497 31.9224 39.82 31.8631 39.7606C31.8037 39.7013 31.8037 39.6419 31.8037 39.5528C31.8037 39.2261 31.8334 38.6619 31.8334 37.8601C31.8631 37.0287 31.8631 35.9893 31.8631 34.7421C31.8631 33.4652 31.8631 32.4258 31.8334 31.624C31.8037 30.8223 31.8037 30.2284 31.8037 29.9017C31.8037 29.8126 31.8334 29.7532 31.8631 29.6938C31.9224 29.6344 31.9817 29.6047 32.0708 29.6047H35.394C35.572 29.6047 35.661 29.6938 35.661 29.8423C35.6907 30.1393 35.7797 30.7035 35.8984 31.535C36.0171 32.3664 36.1655 33.4058 36.4028 34.7124C36.4918 35.3063 36.5809 35.8408 36.6699 36.3457C36.7589 36.8505 36.8182 37.2959 36.9072 37.682C36.9072 37.7413 36.9666 37.771 37.0259 37.771C37.0853 37.771 37.1446 37.7413 37.1446 37.682C37.2336 37.2959 37.293 36.8505 37.382 36.3457C37.471 35.8408 37.56 35.3063 37.649 34.7124C37.8567 33.4058 38.0051 32.3367 38.1238 31.535C38.2425 30.7035 38.3018 30.1393 38.3315 29.8423C38.3612 29.6641 38.4502 29.6047 38.6282 29.6047H41.9514V29.5751Z" fill="#FF5817"/>
<path d="M49.7389 29.575C50.6291 29.575 51.3412 29.6938 51.8753 29.9611C52.3797 30.2283 52.7655 30.5847 52.9732 31.0598C53.2105 31.535 53.2995 32.0992 53.2995 32.7822C53.2995 33.4652 53.1809 34.0294 52.9732 34.4748C52.7358 34.9203 52.3797 35.2766 51.8753 35.5142C51.3709 35.7517 50.6588 35.8705 49.7389 35.8705H48.6708C48.5817 35.8705 48.5224 35.9002 48.4631 35.9596C48.4037 36.019 48.374 36.0784 48.4037 36.1675C48.4037 37.0286 48.4037 37.7413 48.4334 38.3056C48.4631 38.8698 48.4631 39.2855 48.4631 39.5231C48.4631 39.6122 48.4334 39.6716 48.374 39.7309C48.3147 39.7903 48.2554 39.82 48.1663 39.82H46.4751C46.386 39.82 46.3267 39.7903 46.2674 39.7309C46.208 39.6716 46.208 39.6122 46.208 39.5231C46.208 39.1964 46.2377 38.6322 46.2377 37.8304C46.2674 36.9989 46.2674 35.9596 46.2674 34.7124C46.2674 33.4355 46.2674 32.3961 46.2377 31.5943C46.208 30.7926 46.208 30.1987 46.208 29.872C46.208 29.7829 46.2377 29.7235 46.2674 29.6641C46.3267 29.6047 46.386 29.575 46.4751 29.575H49.7389ZM49.7686 34.3263C50.184 34.3263 50.4511 34.2373 50.6291 34.0888C50.8071 33.9106 50.8961 33.7324 50.9258 33.4949C50.9555 33.2573 50.9852 33.0197 50.9852 32.8119C50.9852 32.604 50.9555 32.3664 50.9258 32.0992C50.8961 31.8319 50.7775 31.624 50.6291 31.4162C50.4511 31.238 50.1543 31.1489 49.7686 31.1489H48.7004C48.6114 31.1489 48.5521 31.1786 48.4927 31.238C48.4334 31.2974 48.4037 31.3568 48.4037 31.4459C48.4037 31.8022 48.4037 32.1883 48.374 32.6337C48.374 33.0791 48.3444 33.5543 48.3444 34.0591C48.3444 34.1482 48.374 34.2076 48.4334 34.267C48.4927 34.3263 48.5521 34.356 48.6411 34.356H49.7686V34.3263Z" fill="#FF5817"/>
<path d="M59.5275 39.5528C59.5275 39.6419 59.4978 39.7013 59.4385 39.7607C59.3792 39.82 59.3198 39.8497 59.2308 39.8497H57.5395C57.4505 39.8497 57.3911 39.82 57.3318 39.7607C57.2725 39.7013 57.2725 39.6419 57.2725 39.5528C57.2725 39.2261 57.3021 38.6619 57.3021 37.8601C57.3318 37.0287 57.3318 35.9893 57.3318 34.7421C57.3318 33.4652 57.3318 32.4258 57.3021 31.6241C57.2725 30.8223 57.2725 30.2284 57.2725 29.9017C57.2725 29.8126 57.3021 29.7532 57.3318 29.6938C57.3911 29.6344 57.4505 29.6048 57.5395 29.6048H59.2308C59.3198 29.6048 59.3792 29.6344 59.4385 29.6938C59.4978 29.7532 59.5275 29.8126 59.5275 29.9017C59.5275 30.2284 59.4978 30.7926 59.4682 31.6241C59.4385 32.4258 59.4385 33.4652 59.4385 34.7421C59.4385 36.019 59.4385 37.0584 59.4682 37.8601C59.4978 38.6619 59.4978 39.2261 59.5275 39.5528Z" fill="#FF5817"/>
<path d="M69.7924 39.8497C69.6144 39.8497 69.5254 39.7606 69.4957 39.6122C69.466 39.4637 69.4364 39.2855 69.377 39.0182C69.3177 38.751 69.2583 38.454 69.199 38.068C69.1693 37.9195 69.0803 37.8304 68.9319 37.8304H66.2912C66.1428 37.8304 66.0241 37.9195 65.9944 38.068C65.9351 38.454 65.8758 38.751 65.8164 39.0182C65.7571 39.2558 65.7274 39.4637 65.6977 39.6122C65.6681 39.7606 65.579 39.8497 65.4307 39.8497H63.7097C63.6207 39.8497 63.5317 39.82 63.4724 39.7309C63.413 39.6419 63.3833 39.5825 63.413 39.4934C63.502 39.137 63.6207 38.5728 63.7987 37.771C63.9768 36.9693 64.2141 35.9596 64.4812 34.7124C64.7779 33.4058 64.9856 32.3367 65.134 31.5053C65.2823 30.6738 65.401 30.1096 65.4307 29.8126C65.4604 29.6641 65.5494 29.575 65.6977 29.575H69.466C69.6441 29.575 69.7331 29.6641 69.7628 29.8126C69.8221 30.1096 69.9111 30.6738 70.0595 31.5053C70.2078 32.3367 70.4452 33.4058 70.7122 34.7124C70.9793 35.9596 71.2167 36.9693 71.3947 37.771C71.5727 38.5728 71.7211 39.137 71.8101 39.4934C71.8398 39.5825 71.8101 39.6716 71.7508 39.7309C71.6617 39.7903 71.6024 39.8497 71.5134 39.8497H69.7924ZM66.7362 36.2863H68.5165C68.6056 36.2863 68.6946 36.2566 68.7242 36.1972C68.7836 36.1378 68.8133 36.0487 68.7836 35.9596C68.7242 35.7517 68.6946 35.5736 68.6649 35.3657C68.6056 35.1578 68.5759 34.9499 68.5165 34.7421C68.3682 34.0591 68.2198 33.4355 68.1308 32.8713C68.0121 32.307 67.8934 31.8022 67.8044 31.4162C67.7747 31.3271 67.7154 31.2677 67.6264 31.2677C67.5077 31.2677 67.4484 31.3271 67.4187 31.4162C67.3297 31.8319 67.211 32.307 67.0923 32.8713C66.9736 33.4355 66.8253 34.0591 66.6769 34.7421C66.6176 34.9499 66.5879 35.1578 66.5285 35.3657C66.4692 35.5736 66.4395 35.7814 66.4099 35.9596C66.3802 36.0487 66.4099 36.1378 66.4692 36.1972C66.5582 36.2566 66.6176 36.2863 66.7362 36.2863Z" fill="#FF5817"/>
<path d="M82.8507 32.7822C82.8507 33.0791 82.8507 33.3464 82.821 33.6137C82.7914 33.8809 82.7914 34.2373 82.7914 34.7124C82.7914 35.0391 82.7914 35.336 82.821 35.5439C82.8507 35.7814 82.8507 35.9596 82.8507 36.1675C82.8507 36.3457 82.8804 36.5535 82.8804 36.7614C82.8804 37.385 82.7617 37.9195 82.5243 38.3947C82.2869 38.8401 81.9309 39.1964 81.3968 39.4637C80.8627 39.7013 80.1506 39.8497 79.2901 39.8497H75.9965C75.9075 39.8497 75.8482 39.82 75.7888 39.7607C75.7295 39.7013 75.7295 39.6419 75.7295 39.5528C75.7295 39.2261 75.7592 38.6619 75.7592 37.8601C75.7888 37.0287 75.7888 35.9893 75.7888 34.7421C75.7888 33.4652 75.7888 32.4258 75.7592 31.6241C75.7295 30.8223 75.7295 30.2284 75.7295 29.9017C75.7295 29.8126 75.7592 29.7532 75.7888 29.6938C75.8482 29.6344 75.9075 29.6048 75.9965 29.6048H79.2604C80.1506 29.6048 80.833 29.7532 81.3671 30.0502C81.8715 30.3471 82.2573 30.7332 82.465 31.2083C82.7023 31.6834 82.821 32.1883 82.821 32.6931C82.8507 32.7228 82.8507 32.7525 82.8507 32.7822ZM79.2308 38.2759C79.6165 38.2759 79.9132 38.1868 80.0912 38.0383C80.2693 37.8898 80.388 37.682 80.4473 37.4741C80.5066 37.2662 80.5066 36.999 80.5066 36.7614V32.7822C80.5066 32.6931 80.5066 32.5743 80.477 32.3961C80.477 32.218 80.4176 32.0101 80.3583 31.8319C80.2989 31.6241 80.1506 31.4756 80.0022 31.3271C79.8242 31.1786 79.5868 31.1192 79.2901 31.1192H78.2516C78.1626 31.1192 78.1032 31.1489 78.0439 31.2083C77.9845 31.2677 77.9549 31.3271 77.9549 31.4162C77.9549 31.8319 77.9252 32.3071 77.9252 32.8713C77.9252 33.4058 77.9252 34.0294 77.9252 34.7124C77.9252 35.3954 77.9252 35.9893 77.9252 36.5535C77.9252 37.1177 77.9252 37.5929 77.9549 38.0086C77.9549 38.0977 77.9845 38.1571 78.0439 38.2165C78.1032 38.2759 78.1626 38.3056 78.2516 38.3056H79.2308V38.2759Z" fill="#FF5817"/>
<path d="M89.0993 32.3961C89.0993 32.6931 89.218 32.9307 89.4554 33.1385C89.6928 33.3167 89.9895 33.4652 90.3752 33.6137C90.7609 33.7324 91.1467 33.8809 91.5621 34.0294C91.9775 34.1779 92.3929 34.3561 92.7489 34.5936C93.1347 34.8312 93.4314 35.1281 93.6688 35.5142C93.9061 35.9002 94.0248 36.405 94.0248 36.999C94.0248 37.6226 93.9061 38.1571 93.6688 38.6025C93.4314 39.048 93.0753 39.3746 92.5412 39.6122C92.0368 39.8497 91.3247 39.9685 90.4346 39.9685C89.6037 39.9685 88.9213 39.82 88.3872 39.5528C87.8531 39.2855 87.4674 38.9292 87.2003 38.4837C86.9333 38.0383 86.7849 37.5632 86.7553 37.0584C86.7553 36.9693 86.7553 36.9099 86.8146 36.8505C86.8739 36.7911 86.9333 36.7614 87.0223 36.7614H88.7433C88.9213 36.7614 89.0103 36.8505 89.0103 37.0287C89.04 37.2068 89.0697 37.4147 89.1587 37.6226C89.2477 37.8304 89.3664 38.0086 89.5741 38.1868C89.7521 38.3353 90.0191 38.4243 90.3455 38.4243C90.7313 38.4243 91.028 38.365 91.206 38.2165C91.384 38.0977 91.5027 37.9195 91.5621 37.682C91.6214 37.4444 91.6511 37.2365 91.6511 36.9693C91.6511 36.6723 91.5324 36.405 91.295 36.2269C91.0577 36.0487 90.7609 35.8705 90.3752 35.7517C89.9895 35.6033 89.6037 35.4845 89.1883 35.336C88.7729 35.1875 88.3575 35.0094 88.0015 34.7718C87.6157 34.5342 87.319 34.2373 87.0816 33.8512C86.8443 33.4652 86.7256 32.9604 86.7256 32.3664C86.7256 31.7428 86.8443 31.2083 87.0816 30.7629C87.319 30.3174 87.6751 29.9611 88.2092 29.7532C88.7136 29.5157 89.4257 29.3969 90.3159 29.3969C91.1467 29.3969 91.7994 29.5454 92.3039 29.8126C92.8083 30.0799 93.194 30.4362 93.4314 30.8817C93.6688 31.3271 93.8171 31.8022 93.8468 32.2774C93.8468 32.3664 93.8171 32.4258 93.7578 32.4852C93.6984 32.5446 93.6391 32.5743 93.5501 32.5743H91.8885C91.7104 32.5743 91.6214 32.4852 91.5917 32.3071C91.5917 32.1289 91.5324 31.9507 91.4731 31.7131C91.4137 31.5053 91.295 31.2974 91.117 31.1489C90.939 30.9707 90.7016 30.9114 90.3752 30.9114C89.9895 30.9114 89.6928 30.9707 89.5147 31.1192C89.3367 31.238 89.218 31.4162 89.1587 31.6537C89.0993 31.9507 89.0993 32.1586 89.0993 32.3961Z" fill="#FF5817"/>
</g>
<defs>
<clipPath id="clip0_605_15314">
<rect width="94" height="40" fill="white"/>
</clipPath>
</defs>
</svg>
