<svg width="151" height="43" viewBox="0 0 151 43" fill="none" xmlns="http://www.w3.org/2000/svg">
<path d="M8.18347 10.6111C8.18347 11.6461 8.61104 12.4929 9.41868 13.1045C10.2263 13.7161 11.319 14.2807 12.6017 14.7041C13.9319 15.1745 15.3097 15.645 16.7824 16.1625C18.2552 16.68 19.6329 17.3387 20.9631 18.0914C22.2933 18.8912 23.3385 19.9262 24.1461 21.2905C24.9538 22.6078 25.3813 24.3485 25.3813 26.4656C25.3813 28.6297 25.0013 30.4645 24.1936 32.0171C23.386 33.5696 22.1033 34.7457 20.2505 35.5455C18.4452 36.3453 15.9748 36.7687 12.8868 36.7687C9.94127 36.7687 7.56587 36.2982 5.71306 35.3573C3.86025 34.4164 2.48252 33.1462 1.57987 31.6407C0.677217 30.0882 0.15463 28.4886 0.0121066 26.7479C-0.0354013 26.4656 0.0596146 26.2304 0.249646 25.9951C0.439678 25.7599 0.724725 25.6658 1.00977 25.6658H7.04328C7.66088 25.6658 7.99344 25.9481 8.04095 26.5597C8.08846 27.1713 8.27849 27.8299 8.56354 28.5827C8.84858 29.3354 9.32366 29.9941 9.98877 30.5116C10.6539 31.0761 11.5565 31.3584 12.7442 31.3584C14.122 31.3584 15.1196 31.1232 15.7372 30.6998C16.3548 30.2293 16.7824 29.6177 16.9724 28.865C17.1625 28.1122 17.2575 27.3124 17.2575 26.4656C17.2575 25.3835 16.8299 24.5367 16.0223 23.8781C15.1671 23.2194 14.122 22.7019 12.7917 22.2315C11.4615 21.761 10.0838 21.2905 8.61104 20.773C7.1383 20.2555 5.76057 19.5969 4.47785 18.8441C3.19514 18.0444 2.10246 17.0093 1.29482 15.645C0.439678 14.3277 0.0596139 12.634 0.0596139 10.517C0.0596139 8.35285 0.439677 6.51805 1.24731 4.96553C2.05495 3.41301 3.33766 2.23685 5.14296 1.43707C6.94827 0.637285 9.41868 0.213867 12.5067 0.213867C15.4047 0.213867 17.7326 0.684328 19.5379 1.62525C21.2957 2.56617 22.6259 3.83642 23.481 5.3419C24.3362 6.89442 24.8113 8.49399 24.9538 10.2347C24.9538 10.517 24.8588 10.7522 24.6687 10.9874C24.4787 11.2227 24.2412 11.3168 23.9561 11.3168H17.9226C17.305 11.3168 16.9724 10.9874 16.8774 10.3758C16.8299 9.76423 16.7349 9.10559 16.4974 8.35285C16.2598 7.60011 15.8798 6.94147 15.2622 6.42396C14.6921 5.85941 13.7894 5.57713 12.6492 5.57713C11.2715 5.57713 10.2738 5.81236 9.60871 6.28282C8.9436 6.75328 8.56354 7.36488 8.3735 8.11762C8.27849 8.9174 8.18347 9.76423 8.18347 10.6111Z" fill="#004AAD"/>
<path d="M43.045 0.825195C46.1806 0.825195 48.651 1.29566 50.4563 2.18954C52.2616 3.08341 53.5918 4.35366 54.352 6.00027C55.1596 7.64689 55.5397 9.62283 55.5397 11.9281C55.5397 14.2804 55.1596 16.2093 54.352 17.8089C53.5443 19.4084 52.2616 20.5846 50.4563 21.4314C48.651 22.2312 46.1806 22.6546 43.045 22.6546H39.2919C39.0069 22.6546 38.7693 22.7487 38.5793 22.9369C38.3893 23.1251 38.2942 23.3603 38.3418 23.6426C38.3418 26.6065 38.3418 29.0999 38.3893 31.0288C38.4368 33.0048 38.4843 34.4161 38.5318 35.31C38.5318 35.5923 38.4368 35.8275 38.2467 36.0157C38.0567 36.2039 37.8192 36.298 37.4866 36.298H31.5481C31.2156 36.298 30.978 36.2039 30.788 36.0157C30.5979 35.8275 30.5029 35.5923 30.5029 35.31C30.5504 34.1809 30.5979 32.205 30.6455 29.3822C30.693 26.5594 30.7405 22.9369 30.7405 18.5616C30.7405 14.1393 30.693 10.5167 30.6455 7.69394C30.5979 4.87117 30.5504 2.94227 30.5029 1.81317C30.5029 1.53089 30.5979 1.29566 30.788 1.10748C30.978 0.91929 31.2156 0.825195 31.5481 0.825195H43.045ZM43.1401 17.2443C44.5178 17.2443 45.563 16.962 46.1806 16.3975C46.7982 15.8329 47.1782 15.1272 47.2733 14.3274C47.3683 13.4806 47.4633 12.6808 47.4633 11.9281C47.4633 11.1754 47.4158 10.3756 47.2733 9.48169C47.1782 8.58781 46.7982 7.83507 46.1806 7.17643C45.563 6.51778 44.5653 6.2355 43.1401 6.2355H39.3869C39.1019 6.2355 38.8643 6.3296 38.6743 6.51778C38.4843 6.70597 38.3893 6.94119 38.3893 7.17643C38.3893 8.39963 38.3893 9.76396 38.3418 11.2694C38.2942 12.7749 38.2942 14.4215 38.2942 16.2563C38.2942 16.5386 38.3893 16.8209 38.5793 17.0091C38.7693 17.1973 39.0069 17.2913 39.2919 17.2913H43.1401V17.2443Z" fill="#004AAD"/>
<path d="M82.6286 36.2972C82.0585 36.2972 81.726 36.0149 81.6309 35.4974C81.5834 35.027 81.4409 34.3683 81.2509 33.4744C81.0608 32.5806 80.8708 31.4985 80.6333 30.2283C80.5383 29.7107 80.2057 29.4285 79.6356 29.4285H70.3715C69.849 29.4285 69.4689 29.7107 69.3739 30.2283C69.1363 31.4985 68.9463 32.5806 68.8038 33.4744C68.6613 34.3683 68.5187 35.027 68.4237 35.4974C68.3287 36.062 68.0437 36.2972 67.4261 36.2972H61.4401C61.1075 36.2972 60.8224 36.1561 60.6324 35.9208C60.4424 35.6856 60.3949 35.4033 60.4899 35.074C60.7749 33.8979 61.2025 31.9219 61.8676 29.0991C62.5327 26.3234 63.2929 22.795 64.243 18.5138C65.2407 13.9503 66.0008 10.2336 66.5709 7.41085C67.141 4.54103 67.4736 2.61214 67.6636 1.57713C67.7586 1.05962 68.0912 0.777344 68.6138 0.777344H81.4884C82.0585 0.777344 82.3911 1.05962 82.5336 1.57713C82.7236 2.61214 83.0562 4.54103 83.5788 7.41085C84.1489 10.2807 84.8615 13.9973 85.8591 18.5138C86.7618 22.7479 87.5694 26.2764 88.2345 29.0991C88.8997 31.8749 89.3747 33.8979 89.6598 35.074C89.7073 35.3563 89.6598 35.6386 89.4698 35.9208C89.2797 36.1561 88.9947 36.2972 88.7096 36.2972H82.6286ZM71.8918 24.0182H78.1629C78.4954 24.0182 78.7329 23.9241 78.923 23.6418C79.113 23.4066 79.208 23.1243 79.113 22.842C78.9705 22.1834 78.828 21.4777 78.6854 20.7249C78.5429 20.0192 78.3529 19.2665 78.2104 18.5138C77.6878 16.1144 77.2127 13.9503 76.7851 12.0214C76.3576 10.0925 75.9775 8.39883 75.6449 6.98744C75.5974 6.65812 75.3599 6.46993 74.9798 6.46993C74.5998 6.46993 74.4097 6.65812 74.3147 6.98744C73.9822 8.39883 73.6496 10.0925 73.1745 12.0214C72.7469 13.9503 72.2719 16.1144 71.7493 18.5138C71.5592 19.2665 71.4167 19.9722 71.2742 20.7249C71.1317 21.4306 70.9892 22.1363 70.8466 22.842C70.7516 23.1713 70.8466 23.4066 71.0367 23.6418C71.2742 23.877 71.5117 24.0182 71.8918 24.0182Z" fill="#004AAD"/>
<path d="M118.269 36.298H111.761C111.476 36.298 111.238 36.2039 111.048 36.0157C110.858 35.8275 110.763 35.5923 110.763 35.31V27.5004C110.763 26.7006 110.668 25.9478 110.383 25.2422C110.145 24.4894 109.718 23.8778 109.1 23.4073C108.483 22.9369 107.58 22.6546 106.487 22.6546H103.257C102.972 22.6546 102.734 22.7487 102.544 22.9369C102.354 23.1251 102.259 23.3603 102.307 23.6426C102.307 26.6065 102.307 29.0999 102.354 31.0288C102.402 33.0048 102.449 34.4161 102.497 35.31C102.497 35.5923 102.402 35.8275 102.212 36.0157C102.022 36.2039 101.784 36.298 101.451 36.298H95.5129C95.1804 36.298 94.9429 36.2039 94.7528 36.0157C94.5628 35.8275 94.4678 35.5923 94.4678 35.31C94.5153 34.1809 94.5628 32.205 94.6103 29.3822C94.6578 26.5594 94.7053 22.9369 94.7053 18.5616C94.7053 14.1393 94.6578 10.5167 94.6103 7.69394C94.5628 4.87117 94.5153 2.94227 94.4678 1.81317C94.4678 1.53089 94.5628 1.29566 94.7528 1.10748C94.9429 0.91929 95.1804 0.825195 95.5129 0.825195H106.63C108.293 0.825195 109.908 0.966334 111.381 1.29566C112.901 1.57793 114.231 2.14249 115.371 2.89523C116.511 3.69501 117.462 4.77707 118.127 6.14141C118.792 7.50575 119.124 9.29351 119.124 11.4576C119.124 13.4336 118.649 15.0802 117.747 16.3975C116.844 17.7148 115.656 18.7027 114.231 19.4555C114.089 19.5025 114.041 19.6437 114.041 19.8318C114.041 20.02 114.136 20.1141 114.279 20.2553C115.561 20.8669 116.654 21.7607 117.509 22.9369C118.364 24.113 118.792 25.6185 118.792 27.5474C118.792 29.3822 118.839 30.9347 118.934 32.252C119.029 33.5693 119.124 34.5573 119.267 35.263C119.314 35.5923 119.219 35.8275 119.029 36.0628C118.792 36.1569 118.554 36.298 118.269 36.298ZM106.725 6.18846H103.352C103.067 6.18846 102.829 6.28255 102.639 6.47073C102.449 6.65892 102.354 6.89415 102.354 7.12938C102.354 8.35258 102.354 9.71692 102.307 11.2224C102.259 12.7279 102.259 14.3745 102.259 16.2093C102.259 16.4916 102.354 16.7738 102.544 16.962C102.734 17.1502 102.972 17.2443 103.257 17.2443H106.725C107.865 17.2443 108.72 16.915 109.338 16.3034C109.955 15.6447 110.383 14.892 110.668 13.9981C110.906 13.1042 111.048 12.2574 111.048 11.5047C111.048 10.1403 110.811 9.10532 110.288 8.35258C109.813 7.59984 109.195 7.03529 108.53 6.70596C107.865 6.32959 107.295 6.18846 106.725 6.18846Z" fill="#004AAD"/>
<path d="M142.258 36.298C141.83 36.298 141.545 36.1098 141.402 35.7334L132.946 19.7377C132.851 19.5496 132.661 19.4555 132.471 19.5025C132.233 19.5496 132.138 19.6907 132.138 19.9259C132.138 23.9719 132.186 27.2651 132.233 29.8527C132.281 32.4402 132.328 34.228 132.376 35.31C132.376 35.5923 132.281 35.8275 132.091 36.0157C131.901 36.2039 131.663 36.298 131.331 36.298H125.44C125.107 36.298 124.87 36.2039 124.68 36.0157C124.49 35.8275 124.395 35.5923 124.395 35.31C124.442 34.1809 124.49 32.205 124.537 29.3822C124.585 26.5594 124.632 22.9369 124.632 18.5616C124.632 14.1393 124.585 10.5167 124.537 7.69394C124.49 4.87117 124.442 2.94227 124.395 1.81317C124.395 1.53089 124.49 1.29566 124.68 1.10748C124.87 0.91929 125.107 0.825195 125.44 0.825195H131.378C131.711 0.825195 131.948 0.91929 132.138 1.10748C132.328 1.29566 132.423 1.53089 132.423 1.81317C132.376 2.84818 132.328 4.4948 132.281 6.8471C132.233 9.19941 132.186 12.1633 132.186 15.7859C132.186 15.9741 132.281 16.1152 132.518 16.2093C132.756 16.2563 132.898 16.2093 132.993 16.0211L140.737 1.38975C140.927 1.01338 141.212 0.825195 141.592 0.825195H148.814C149.241 0.825195 149.526 1.01338 149.716 1.34271C149.906 1.71908 149.859 2.0484 149.621 2.37772C148.719 3.55387 147.483 5.38868 145.868 7.83508C144.253 10.2815 142.495 13.3865 140.547 17.0561C140.215 17.6207 140.215 18.1382 140.5 18.6086C142.638 22.6546 144.585 26.0419 146.343 28.7706C148.101 31.4522 149.431 33.4282 150.334 34.6984C150.571 35.0277 150.571 35.3571 150.381 35.7334C150.191 36.1098 149.906 36.2509 149.479 36.2509H142.258V36.298Z" fill="#004AAD"/>
<mask id="mask0_733_1505" style="mask-type:luminance" maskUnits="userSpaceOnUse" x="56" y="0" width="38" height="36">
<path d="M93.6771 0H56.8584V35.0964H93.6771V0Z" fill="white"/>
</mask>
<g mask="url(#mask0_733_1505)">
<path d="M75.1965 0L79.5197 13.4081H93.4871L82.1802 21.6883L86.5034 35.0964L75.1965 26.8163L63.8421 35.0964L68.1653 21.6883L56.8584 13.4081H70.8258L75.1965 0Z" fill="#FF5817"/>
</g>
<mask id="mask1_733_1505" style="mask-type:luminance" maskUnits="userSpaceOnUse" x="56" y="0" width="38" height="36">
<path d="M93.4395 0H56.8584V35.0494H93.4395V0Z" fill="white"/>
</mask>
<g mask="url(#mask1_733_1505)">
<mask id="mask2_733_1505" style="mask-type:luminance" maskUnits="userSpaceOnUse" x="56" y="0" width="38" height="36">
<path d="M75.1965 0L79.5197 13.4081H93.4871L82.1802 21.6883L86.5034 35.0964L75.1965 26.8163L63.8421 35.0964L68.1653 21.6883L56.8584 13.4081H70.8258L75.1965 0Z" fill="white"/>
</mask>
<g mask="url(#mask2_733_1505)">
<path d="M90.1154 40.0372L75.1979 29.1225L60.2804 40.0372L65.9813 22.3949L51.1113 11.5272H69.4969L75.1979 -6.16211L80.8988 11.5272H99.2844L84.4144 22.3949L90.1154 40.0372ZM62.6083 15.2909L70.3996 20.9835L67.4541 30.1105L75.1979 24.4649L82.9417 30.1105L79.9962 20.9835L87.7875 15.2909H78.1909L75.2454 6.21103L72.2524 15.2909H62.6083Z" fill="#004AAD"/>
</g>
</g>
</svg>
