<svg width="34" height="33" viewBox="0 0 34 33" fill="none" xmlns="http://www.w3.org/2000/svg">
<path fill-rule="evenodd" clip-rule="evenodd" d="M9.28063 8.81977C8.83589 9.17556 8.76378 9.82452 9.11957 10.2693L14.1042 16.5L9.11957 22.7308C8.76378 23.1756 8.83589 23.8245 9.28063 24.1803C9.72536 24.5361 10.3743 24.464 10.7301 24.0193L16.2301 17.1443C16.5314 16.7676 16.5314 16.2325 16.2301 15.8558L10.7301 8.98082C10.3743 8.53608 9.72536 8.46398 9.28063 8.81977Z" fill="#314772"/>
<path opacity="0.4" fill-rule="evenodd" clip-rule="evenodd" d="M17.5306 8.81977C17.0859 9.17556 17.0138 9.82452 17.3696 10.2693L22.3542 16.5L17.3696 22.7308C17.0138 23.1756 17.0859 23.8245 17.5306 24.1803C17.9754 24.5361 18.6243 24.464 18.9801 24.0193L24.4801 17.1443C24.7814 16.7676 24.7814 16.2325 24.4801 15.8558L18.9801 8.98082C18.6243 8.53608 17.9754 8.46398 17.5306 8.81977Z" fill="#314772"/>
</svg>
