<svg width="33" height="33" viewBox="0 0 33 33" fill="none" xmlns="http://www.w3.org/2000/svg">
<path fill-rule="evenodd" clip-rule="evenodd" d="M8.98082 8.81977C8.53608 9.17556 8.46398 9.82452 8.81977 10.2693L13.8044 16.5L8.81977 22.7308C8.46398 23.1756 8.53608 23.8245 8.98082 24.1803C9.42556 24.5361 10.0745 24.464 10.4303 24.0193L15.9303 17.1443C16.2316 16.7676 16.2316 16.2325 15.9303 15.8558L10.4303 8.98082C10.0745 8.53608 9.42556 8.46398 8.98082 8.81977Z" fill="white"/>
<path opacity="0.4" fill-rule="evenodd" clip-rule="evenodd" d="M17.2308 8.81977C16.7861 9.17556 16.714 9.82452 17.0698 10.2693L22.0544 16.5L17.0698 22.7308C16.714 23.1756 16.7861 23.8245 17.2308 24.1803C17.6756 24.5361 18.3245 24.464 18.6803 24.0193L24.1803 17.1443C24.4816 16.7676 24.4816 16.2325 24.1803 15.8558L18.6803 8.98082C18.3245 8.53608 17.6756 8.46398 17.2308 8.81977Z" fill="white"/>
</svg>
