<svg width="94" height="40" viewBox="0 0 94 40" fill="none" xmlns="http://www.w3.org/2000/svg">
<g clip-path="url(#clip0_537_2277)">
<path d="M5.08668 10.5871C5.08668 11.2405 5.35373 11.775 5.85815 12.161C6.36257 12.5471 7.04502 12.9034 7.84615 13.1707C8.67696 13.4676 9.53744 13.7646 10.4573 14.0912C11.3771 14.4179 12.2376 14.8336 13.0684 15.3087C13.8992 15.8136 14.552 16.4669 15.0564 17.3281C15.5608 18.1595 15.8278 19.2583 15.8278 20.5946C15.8278 21.9606 15.5905 23.1187 15.0861 24.0987C14.5816 25.0786 13.7805 25.821 12.6233 26.3258C11.4958 26.8307 9.95285 27.0979 8.02418 27.0979C6.18454 27.0979 4.70095 26.801 3.54375 26.207C2.38656 25.6131 1.52608 24.8113 0.962314 23.8611C0.398551 22.8811 0.0721625 21.8715 -0.0168527 20.7727C-0.0465244 20.5946 0.012819 20.4461 0.131506 20.2976C0.250193 20.1491 0.428223 20.0897 0.606253 20.0897H4.37456C4.76029 20.0897 4.968 20.2679 4.99767 20.654C5.02734 21.04 5.14603 21.4557 5.32406 21.9309C5.50209 22.406 5.79881 22.8217 6.21421 23.1484C6.62961 23.5047 7.19338 23.6829 7.93517 23.6829C8.79565 23.6829 9.41876 23.5344 9.80449 23.2672C10.1902 22.9702 10.4573 22.5842 10.576 22.109C10.6946 21.6339 10.754 21.1291 10.754 20.5946C10.754 19.9116 10.4869 19.377 9.98252 18.9613C9.44843 18.5456 8.79565 18.2189 7.96484 17.922C7.13403 17.625 6.27355 17.3281 5.35373 17.0014C4.43391 16.6748 3.57343 16.259 2.77229 15.7839C1.97115 15.2791 1.2887 14.6258 0.784284 13.7646C0.250193 12.9331 0.0128186 11.8641 0.0128186 10.5278C0.0128186 9.16176 0.250192 8.00363 0.754612 7.02367C1.25903 6.04372 2.06017 5.30133 3.18769 4.7965C4.31522 4.29168 5.85815 4.02441 7.78681 4.02441C9.59679 4.02441 11.0507 4.32137 12.1782 4.91528C13.2761 5.50919 14.1069 6.31098 14.641 7.26124C15.1751 8.24119 15.4718 9.25084 15.5608 10.3496C15.5608 10.5278 15.5015 10.6762 15.3828 10.8247C15.2641 10.9732 15.1157 11.0326 14.9377 11.0326H11.1694C10.7837 11.0326 10.576 10.8247 10.5166 10.4387C10.4869 10.0526 10.4276 9.63689 10.2792 9.16176C10.1309 8.68663 9.8935 8.27089 9.50777 7.94424C9.15171 7.58789 8.58795 7.40972 7.87583 7.40972C7.01535 7.40972 6.39224 7.5582 5.97684 7.85515C5.56143 8.15211 5.32406 8.53815 5.20537 9.01328C5.14603 9.5181 5.08668 10.0526 5.08668 10.5871Z" fill="white"/>
<path d="M26.8607 4.41016C28.819 4.41016 30.3619 4.70712 31.4895 5.27133C32.617 5.83555 33.4478 6.63733 33.9225 7.67667C34.427 8.71602 34.6643 9.96324 34.6643 11.4183C34.6643 12.9031 34.427 14.1206 33.9225 15.1303C33.4181 16.1399 32.617 16.8823 31.4895 17.4168C30.3619 17.9217 28.819 18.1889 26.8607 18.1889H24.5166C24.3386 18.1889 24.1902 18.2483 24.0715 18.3671C23.9528 18.4859 23.8935 18.6344 23.9232 18.8125C23.9232 20.6834 23.9232 22.2572 23.9528 23.4747C23.9825 24.722 24.0122 25.6128 24.0419 26.177C24.0419 26.3552 23.9825 26.5037 23.8638 26.6225C23.7451 26.7413 23.5968 26.8006 23.3891 26.8006H19.6801C19.4724 26.8006 19.3241 26.7413 19.2054 26.6225C19.0867 26.5037 19.0273 26.3552 19.0273 26.177C19.057 25.4643 19.0867 24.2171 19.1164 22.4354C19.146 20.6537 19.1757 18.3671 19.1757 15.6054C19.1757 12.814 19.146 10.5275 19.1164 8.74572C19.0867 6.96398 19.057 5.74646 19.0273 5.03377C19.0273 4.85559 19.0867 4.70711 19.2054 4.58833C19.3241 4.46955 19.4724 4.41016 19.6801 4.41016H26.8607ZM26.92 14.7739C27.7805 14.7739 28.4333 14.5958 28.819 14.2394C29.2047 13.8831 29.4421 13.4376 29.5015 12.9328C29.5608 12.3983 29.6201 11.8935 29.6201 11.4183C29.6201 10.9432 29.5905 10.4384 29.5015 9.87415C29.4421 9.30994 29.2047 8.8348 28.819 8.41906C28.4333 8.00333 27.8102 7.82515 26.92 7.82515H24.576C24.3979 7.82515 24.2496 7.88455 24.1309 8.00333C24.0122 8.12211 23.9528 8.27059 23.9528 8.41906C23.9528 9.19115 23.9528 10.0523 23.9232 11.0026C23.8935 11.9528 23.8935 12.9922 23.8935 14.1503C23.8935 14.3285 23.9528 14.5067 24.0715 14.6255C24.1902 14.7442 24.3386 14.8036 24.5166 14.8036H26.92V14.7739Z" fill="white"/>
<path d="M51.5823 26.8011C51.2262 26.8011 51.0185 26.6229 50.9592 26.2962C50.9295 25.9993 50.8405 25.5835 50.7218 25.0193C50.6031 24.4551 50.4844 23.7721 50.3361 22.9703C50.2767 22.6437 50.069 22.4655 49.713 22.4655H43.927C43.6006 22.4655 43.3632 22.6437 43.3039 22.9703C43.1555 23.7721 43.0368 24.4551 42.9478 25.0193C42.8588 25.5835 42.7698 25.9993 42.7104 26.2962C42.6511 26.6526 42.4731 26.8011 42.0873 26.8011H38.3487C38.141 26.8011 37.963 26.712 37.8443 26.5635C37.7256 26.415 37.6959 26.2368 37.7553 26.029C37.9333 25.2866 38.2003 24.0394 38.6157 22.2576C39.0311 20.5056 39.5059 18.2784 40.0993 15.5761C40.7224 12.6956 41.1972 10.3497 41.5532 8.56794C41.9093 6.75651 42.117 5.53899 42.2357 4.88568C42.295 4.55903 42.5027 4.38086 42.8291 4.38086H50.8702C51.2262 4.38086 51.4339 4.55903 51.5229 4.88568C51.6416 5.53899 51.8493 6.75651 52.1757 8.56794C52.5318 10.3794 52.9769 12.7253 53.6 15.5761C54.1637 18.2487 54.6681 20.4759 55.0835 22.2576C55.4989 24.0097 55.7957 25.2866 55.9737 26.029C56.0034 26.2071 55.9737 26.3853 55.855 26.5635C55.7363 26.712 55.5583 26.8011 55.3803 26.8011H51.5823ZM44.8765 19.0505H48.7931C49.0008 19.0505 49.1492 18.9911 49.2679 18.8129C49.3866 18.6645 49.4459 18.4863 49.3866 18.3081C49.2976 17.8924 49.2085 17.4469 49.1195 16.9718C49.0305 16.5264 48.9118 16.0512 48.8228 15.5761C48.4964 14.0616 48.1997 12.6956 47.9327 11.4781C47.6656 10.2606 47.4282 9.19155 47.2205 8.30068C47.1909 8.09281 47.0425 7.97403 46.8051 7.97403C46.5678 7.97403 46.4491 8.09281 46.3897 8.30068C46.182 9.19155 45.9743 10.2606 45.6776 11.4781C45.4106 12.6956 45.1138 14.0616 44.7875 15.5761C44.6688 16.0512 44.5798 16.4967 44.4907 16.9718C44.4017 17.4172 44.3127 17.8627 44.2237 18.3081C44.1643 18.516 44.2237 18.6645 44.3424 18.8129C44.4907 18.9614 44.6391 19.0505 44.8765 19.0505Z" fill="#004AAD"/>
<path d="M73.8421 26.8006H69.7771C69.599 26.8006 69.4507 26.7413 69.332 26.6225C69.2133 26.5037 69.154 26.3552 69.154 26.177V21.2476C69.154 20.7427 69.0946 20.2676 68.9166 19.8222C68.7682 19.3471 68.5012 18.961 68.1155 18.6641C67.7297 18.3671 67.166 18.1889 66.4835 18.1889H64.4658C64.2878 18.1889 64.1394 18.2483 64.0208 18.3671C63.9021 18.4859 63.8427 18.6344 63.8724 18.8125C63.8724 20.6834 63.8724 22.2572 63.9021 23.4747C63.9317 24.722 63.9614 25.6128 63.9911 26.177C63.9911 26.3552 63.9317 26.5037 63.8131 26.6225C63.6944 26.7413 63.546 26.8006 63.3383 26.8006H59.6293C59.4216 26.8006 59.2733 26.7413 59.1546 26.6225C59.0359 26.5037 58.9766 26.3552 58.9766 26.177C59.0062 25.4643 59.0359 24.2171 59.0656 22.4354C59.0952 20.6537 59.1249 18.3671 59.1249 15.6054C59.1249 12.814 59.0952 10.5275 59.0656 8.74572C59.0359 6.96398 59.0062 5.74646 58.9766 5.03377C58.9766 4.85559 59.0359 4.70711 59.1546 4.58833C59.2733 4.46955 59.4216 4.41016 59.6293 4.41016H66.5725C67.611 4.41016 68.6199 4.49924 69.5397 4.70711C70.4892 4.88529 71.32 5.24164 72.0321 5.71677C72.7442 6.22159 73.3377 6.90459 73.7531 7.76576C74.1685 8.62693 74.3762 9.75537 74.3762 11.1214C74.3762 12.3686 74.0795 13.4079 73.5157 14.2394C72.9519 15.0709 72.2101 15.6945 71.32 16.1696C71.231 16.1993 71.2013 16.2884 71.2013 16.4072C71.2013 16.526 71.2607 16.5854 71.3497 16.6744C72.1508 17.0605 72.8333 17.6247 73.3673 18.3671C73.9014 19.1095 74.1685 20.0597 74.1685 21.2773C74.1685 22.4354 74.1982 23.4153 74.2575 24.2468C74.3168 25.0783 74.3762 25.7019 74.4652 26.1473C74.4949 26.3552 74.4355 26.5037 74.3168 26.6522C74.1685 26.7116 74.0201 26.8006 73.8421 26.8006ZM66.6319 7.79546H64.5252C64.3471 7.79546 64.1988 7.85485 64.0801 7.97363C63.9614 8.09241 63.9021 8.24089 63.9021 8.38937C63.9021 9.16146 63.9021 10.0226 63.8724 10.9729C63.8427 11.9231 63.8427 12.9625 63.8427 14.1206C63.8427 14.2988 63.9021 14.477 64.0208 14.5958C64.1394 14.7145 64.2878 14.7739 64.4658 14.7739H66.6319C67.344 14.7739 67.8781 14.5661 68.2638 14.18C68.6495 13.7643 68.9166 13.2891 69.0946 12.7249C69.243 12.1607 69.332 11.6262 69.332 11.1511C69.332 10.2899 69.1836 9.63658 68.8572 9.16145C68.5605 8.68632 68.1748 8.32998 67.7594 8.12211C67.344 7.88454 66.9879 7.79546 66.6319 7.79546Z" fill="white"/>
<path d="M88.8236 26.8006C88.5565 26.8006 88.3785 26.6819 88.2895 26.4443L83.0079 16.3478C82.9486 16.229 82.8299 16.1696 82.7112 16.1993C82.5628 16.229 82.5035 16.3181 82.5035 16.4666C82.5035 19.0204 82.5332 21.0991 82.5628 22.7323C82.5925 24.3656 82.6222 25.494 82.6518 26.177C82.6518 26.3552 82.5925 26.5037 82.4738 26.6225C82.3551 26.7413 82.2068 26.8006 81.9991 26.8006H78.3198C78.1121 26.8006 77.9637 26.7413 77.845 26.6225C77.7263 26.5037 77.667 26.3552 77.667 26.177C77.6967 25.4643 77.7263 24.2171 77.756 22.4354C77.7857 20.6537 77.8154 18.3671 77.8154 15.6054C77.8154 12.814 77.7857 10.5275 77.756 8.74572C77.7263 6.96398 77.6967 5.74646 77.667 5.03377C77.667 4.85559 77.7263 4.70711 77.845 4.58833C77.9637 4.46955 78.1121 4.41016 78.3198 4.41016H82.0287C82.2364 4.41016 82.3848 4.46955 82.5035 4.58833C82.6222 4.70711 82.6815 4.85559 82.6815 5.03377C82.6518 5.68707 82.6222 6.72642 82.5925 8.2112C82.5628 9.69598 82.5332 11.5668 82.5332 13.8534C82.5332 13.9721 82.5925 14.0612 82.7409 14.1206C82.8892 14.1503 82.9782 14.1206 83.0376 14.0018L87.8741 4.7665C87.9927 4.52894 88.1708 4.41016 88.4082 4.41016H92.9183C93.1853 4.41016 93.3633 4.52894 93.482 4.73681C93.6007 4.97437 93.571 5.18224 93.4227 5.39011C92.8589 6.1325 92.0874 7.29063 91.0786 8.83481C90.0698 10.379 88.9719 12.3389 87.7554 14.6551C87.5477 15.0115 87.5477 15.3381 87.7257 15.6351C89.0609 18.1889 90.2775 20.327 91.3753 22.0494C92.4732 23.742 93.304 24.9892 93.8677 25.791C94.0161 25.9989 94.0161 26.2067 93.8974 26.4443C93.7787 26.6819 93.6007 26.771 93.3337 26.771H88.8236V26.8006Z" fill="white"/>
<mask id="mask0_537_2277" style="mask-type:luminance" maskUnits="userSpaceOnUse" x="35" y="3" width="24" height="24">
<path d="M58.4839 3.88965H35.4883V26.0426H58.4839V3.88965Z" fill="white"/>
</mask>
<g mask="url(#mask0_537_2277)">
<path d="M46.9416 3.88965L49.6417 12.3529H58.3652L51.3033 17.5793L54.0034 26.0426L46.9416 20.8162L39.85 26.0426L42.5501 17.5793L35.4883 12.3529H44.2118L46.9416 3.88965Z" fill="#FF5817"/>
</g>
<mask id="mask1_537_2277" style="mask-type:luminance" maskUnits="userSpaceOnUse" x="35" y="3" width="24" height="24">
<path d="M58.3355 3.88965H35.4883V26.0129H58.3355V3.88965Z" fill="white"/>
</mask>
<g mask="url(#mask1_537_2277)">
<mask id="mask2_537_2277" style="mask-type:luminance" maskUnits="userSpaceOnUse" x="35" y="3" width="24" height="24">
<path d="M46.9416 3.88965L49.6417 12.3529H58.3652L51.3033 17.5793L54.0034 26.0426L46.9416 20.8162L39.85 26.0426L42.5501 17.5793L35.4883 12.3529H44.2118L46.9416 3.88965Z" fill="white"/>
</mask>
<g mask="url(#mask2_537_2277)">
<path d="M56.2589 29.1611L46.942 22.2717L37.6251 29.1611L41.1857 18.0252L31.8984 11.1656H43.3814L46.942 0L50.5026 11.1656H61.9856L52.6983 18.0252L56.2589 29.1611ZM39.079 13.5412L43.9452 17.1344L42.1055 22.8953L46.942 19.3319L51.7785 22.8953L49.9388 17.1344L54.805 13.5412H48.8113L46.9717 7.80995L45.1024 13.5412H39.079Z" fill="white"/>
</g>
</g>
<path d="M7.13684 32.663C7.13684 32.8709 7.13684 33.049 7.10717 33.2569C7.10717 33.4351 7.10717 33.643 7.07749 33.8805C7.07749 34.1181 7.04782 34.3853 7.04782 34.712C7.04782 35.0387 7.04782 35.3356 7.07749 35.5435C7.07749 35.781 7.10717 35.9592 7.10717 36.1671C7.10717 36.3453 7.13684 36.5531 7.13684 36.761C7.13684 37.3846 7.01815 37.9488 6.81045 38.424C6.57307 38.8991 6.21701 39.2851 5.68292 39.5524C5.14883 39.8196 4.46638 39.9681 3.57623 39.9681C2.68608 39.9681 1.97396 39.8196 1.43987 39.493C0.905776 39.1663 0.549716 38.7803 0.342013 38.2755C0.134311 37.7706 0.015625 37.2658 0.015625 36.7313C0.015625 36.5234 0.015625 36.3156 0.015625 36.1374C0.015625 35.9592 0.0452963 35.7513 0.0452963 35.5138C0.074968 35.2762 0.0749675 35.009 0.0749675 34.6823C0.0749675 34.3557 0.074968 34.0587 0.0452963 33.8508C0.0156245 33.6133 0.015625 33.4054 0.015625 33.2272C0.015625 33.049 0.015625 32.8412 0.015625 32.6333C0.015625 32.0097 0.134311 31.4455 0.371685 30.9704C0.609058 30.4952 0.96512 30.1092 1.49921 29.8122C2.00363 29.5153 2.71575 29.3965 3.6059 29.3965C4.49605 29.3965 5.20818 29.545 5.71259 29.8716C6.24669 30.1686 6.60275 30.5843 6.81045 31.0891C7.01815 31.6237 7.13684 32.1285 7.13684 32.663ZM3.54656 38.424C3.93229 38.424 4.19934 38.3349 4.40704 38.1567C4.58507 37.9785 4.70376 37.7706 4.7631 37.5034C4.82244 37.2361 4.85212 36.9986 4.85212 36.7313V32.663C4.85212 32.5739 4.85211 32.4551 4.82244 32.277C4.79277 32.0988 4.7631 31.8909 4.67408 31.7127C4.61474 31.5049 4.49605 31.3564 4.31802 31.2079C4.13999 31.0594 3.93229 31 3.6059 31C3.22017 31 2.92345 31.0891 2.74542 31.2673C2.56739 31.4455 2.44871 31.6534 2.38936 31.9206C2.33002 32.1879 2.33002 32.4254 2.33002 32.663V36.7313C2.33002 36.8204 2.33002 36.9392 2.35969 37.1173C2.38936 37.2955 2.41903 37.4737 2.47838 37.6816C2.56739 37.8894 2.68608 38.0379 2.83444 38.1864C3.01247 38.3349 3.24984 38.424 3.54656 38.424Z" fill="#FF5817"/>
<path d="M13.226 37.9781C13.226 38.0672 13.2557 38.1266 13.2853 38.1859C13.3447 38.2453 13.404 38.275 13.493 38.275H16.3415C16.4305 38.275 16.4899 38.3047 16.5492 38.3641C16.6086 38.4235 16.6382 38.4829 16.6382 38.572V39.5519C16.6382 39.641 16.6086 39.7004 16.5492 39.7598C16.4899 39.8192 16.4305 39.8489 16.3415 39.8489H11.327C11.238 39.8489 11.1786 39.8192 11.1193 39.7598C11.0599 39.7004 11.0303 39.641 11.0303 39.5519V29.8712C11.0303 29.7821 11.0599 29.7227 11.1193 29.6633C11.1786 29.6039 11.238 29.5742 11.327 29.5742H13.048C13.137 29.5742 13.1963 29.6039 13.2557 29.6633C13.315 29.7227 13.3447 29.7821 13.3447 29.8712C13.3447 30.1384 13.3447 30.5542 13.315 31.1184C13.315 31.6826 13.2853 32.3359 13.2853 33.0783C13.2853 33.8207 13.2557 34.6225 13.2557 35.4836C13.226 36.3151 13.226 37.1763 13.226 37.9781Z" fill="#FF5817"/>
<path d="M26.557 32.722C26.2603 33.3753 26.0229 33.9395 25.8449 34.4146C25.6668 34.86 25.5185 35.2164 25.4295 35.454C25.3701 35.6024 25.3404 35.7509 25.3404 35.8994C25.3404 36.1073 25.3108 36.3151 25.3108 36.5824C25.3108 36.8496 25.3108 37.1466 25.3108 37.5029C25.3108 38.0078 25.3108 38.4235 25.3404 38.7502C25.3701 39.0768 25.3701 39.3441 25.3701 39.5223C25.3701 39.6113 25.3701 39.6707 25.3108 39.7301C25.2514 39.7895 25.1624 39.8192 25.1031 39.8192H23.4415C23.3524 39.8192 23.2931 39.7895 23.2338 39.7301C23.1744 39.6707 23.1447 39.6113 23.1744 39.5223C23.1744 39.3441 23.2041 39.0768 23.2041 38.7502C23.2338 38.4235 23.2338 38.0078 23.2338 37.5029C23.2338 37.1466 23.2338 36.8496 23.2041 36.5824C23.2041 36.3151 23.2041 36.0776 23.1744 35.8994C23.1744 35.7509 23.1447 35.6024 23.0854 35.454C22.9964 35.2164 22.848 34.86 22.67 34.4146C22.492 33.9692 22.2546 33.405 21.9579 32.722C21.6612 32.0687 21.4238 31.5044 21.1864 31.059C20.9787 30.6136 20.8007 30.2572 20.682 29.99C20.6226 29.9009 20.6226 29.8118 20.7117 29.7227C20.771 29.6336 20.86 29.5742 20.949 29.5742H22.581C22.7293 29.5742 22.8183 29.6336 22.848 29.7821C22.9074 29.99 23.026 30.3463 23.1744 30.8214C23.3524 31.3263 23.5601 31.9499 23.8272 32.6923C23.9459 33.0189 24.0646 33.3159 24.1536 33.6128C24.1832 33.6722 24.2129 33.7019 24.2723 33.7019C24.3316 33.7019 24.3613 33.6722 24.3909 33.6128C24.5096 33.3159 24.6283 33.0189 24.747 32.6923C25.0141 31.9202 25.2218 31.2966 25.3998 30.8214C25.5778 30.3166 25.6668 29.99 25.7262 29.7821C25.7855 29.6336 25.8745 29.5742 25.9932 29.5742H27.6252C27.7142 29.5742 27.8032 29.6336 27.8625 29.7227C27.9219 29.8118 27.9219 29.9009 27.8922 29.99C27.7735 30.2275 27.5955 30.5839 27.3878 31.059C27.1207 31.5044 26.8537 32.0687 26.557 32.722Z" fill="#FF5817"/>
<path d="M41.9514 29.5742C42.0405 29.5742 42.0998 29.6039 42.1591 29.6633C42.2185 29.7227 42.2482 29.7821 42.2482 29.8712C42.2482 30.1978 42.2185 30.762 42.1888 31.5935C42.1591 32.3953 42.1591 33.4346 42.1591 34.7116C42.1591 35.9885 42.1591 37.0278 42.1888 37.8296C42.2185 38.6314 42.2185 39.1956 42.2482 39.5223C42.2482 39.6113 42.2185 39.6707 42.1591 39.7301C42.0998 39.8192 42.0405 39.8489 41.9514 39.8489H40.2305C40.1415 39.8489 40.0821 39.8192 40.0228 39.7598C39.9634 39.7004 39.9338 39.641 39.9634 39.5519C39.9634 39.2253 39.9931 38.6611 39.9931 37.8593C40.0228 37.0278 40.0228 35.9885 40.0228 34.7413C40.0228 34.1176 40.0228 33.5534 40.0228 33.0783C40.0228 32.5735 40.0228 32.128 39.9931 31.7123C39.9931 31.6232 39.9634 31.5935 39.8744 31.5935C39.8151 31.5935 39.7557 31.6232 39.7261 31.7123C39.6667 32.0983 39.5777 32.5735 39.4887 33.0783C39.3997 33.5831 39.3107 34.1473 39.2216 34.771C39.0139 36.0776 38.8359 37.1466 38.7172 37.9484C38.5985 38.7799 38.5392 39.3441 38.5095 39.641C38.4798 39.8192 38.3908 39.8786 38.2128 39.8786H35.7797C35.6017 39.8786 35.5127 39.7895 35.483 39.641C35.4533 39.3441 35.3643 38.7799 35.2456 37.9484C35.1269 37.1169 34.9786 36.0479 34.7412 34.771C34.6522 34.1473 34.5632 33.5831 34.4742 33.0783C34.3852 32.5735 34.2961 32.0983 34.2368 31.7123C34.2368 31.6232 34.1774 31.5935 34.1181 31.5935C34.0588 31.5935 33.9994 31.6529 33.9994 31.7123C33.9994 32.0983 33.9697 32.5735 33.9697 33.0783C33.9697 33.5831 33.9697 34.1473 33.9697 34.7413C33.9697 36.0182 33.9697 37.0575 33.9994 37.8593C34.0291 38.6611 34.0291 39.2253 34.0588 39.5519C34.0588 39.641 34.0291 39.7004 33.9697 39.7598C33.9104 39.8192 33.8511 39.8489 33.762 39.8489H32.0708C31.9817 39.8489 31.9224 39.8192 31.8631 39.7598C31.8037 39.7004 31.8037 39.641 31.8037 39.5519C31.8037 39.2253 31.8334 38.6611 31.8334 37.8593C31.8631 37.0278 31.8631 35.9885 31.8631 34.7413C31.8631 33.4643 31.8631 32.425 31.8334 31.6232C31.8037 30.8214 31.8037 30.2275 31.8037 29.9009C31.8037 29.8118 31.8334 29.7524 31.8631 29.693C31.9224 29.6336 31.9817 29.6039 32.0708 29.6039H35.394C35.572 29.6039 35.661 29.693 35.661 29.8415C35.6907 30.1384 35.7797 30.7027 35.8984 31.5341C36.0171 32.3656 36.1655 33.405 36.4028 34.7116C36.4918 35.3055 36.5809 35.84 36.6699 36.3448C36.7589 36.8496 36.8182 37.2951 36.9072 37.6811C36.9072 37.7405 36.9666 37.7702 37.0259 37.7702C37.0853 37.7702 37.1446 37.7405 37.1446 37.6811C37.2336 37.2951 37.293 36.8496 37.382 36.3448C37.471 35.84 37.56 35.3055 37.649 34.7116C37.8567 33.405 38.0051 32.3359 38.1238 31.5341C38.2425 30.7027 38.3018 30.1384 38.3315 29.8415C38.3612 29.6633 38.4502 29.6039 38.6282 29.6039H41.9514V29.5742Z" fill="#FF5817"/>
<path d="M49.7389 29.5742C50.6291 29.5742 51.3412 29.693 51.8753 29.9603C52.3797 30.2275 52.7655 30.5839 52.9732 31.059C53.2105 31.5341 53.2995 32.0983 53.2995 32.7813C53.2995 33.4643 53.1809 34.0286 52.9732 34.474C52.7358 34.9194 52.3797 35.2758 51.8753 35.5133C51.3709 35.7509 50.6588 35.8697 49.7389 35.8697H48.6708C48.5817 35.8697 48.5224 35.8994 48.4631 35.9588C48.4037 36.0182 48.374 36.0776 48.4037 36.1666C48.4037 37.0278 48.4037 37.7405 48.4334 38.3047C48.4631 38.8689 48.4631 39.2847 48.4631 39.5223C48.4631 39.6113 48.4334 39.6707 48.374 39.7301C48.3147 39.7895 48.2554 39.8192 48.1663 39.8192H46.4751C46.386 39.8192 46.3267 39.7895 46.2674 39.7301C46.208 39.6707 46.208 39.6113 46.208 39.5223C46.208 39.1956 46.2377 38.6314 46.2377 37.8296C46.2674 36.9981 46.2674 35.9588 46.2674 34.7116C46.2674 33.4346 46.2674 32.3953 46.2377 31.5935C46.208 30.7917 46.208 30.1978 46.208 29.8712C46.208 29.7821 46.2377 29.7227 46.2674 29.6633C46.3267 29.6039 46.386 29.5742 46.4751 29.5742H49.7389ZM49.7686 34.3255C50.184 34.3255 50.4511 34.2364 50.6291 34.088C50.8071 33.9098 50.8961 33.7316 50.9258 33.494C50.9555 33.2565 50.9852 33.0189 50.9852 32.811C50.9852 32.6032 50.9555 32.3656 50.9258 32.0983C50.8961 31.8311 50.7775 31.6232 50.6291 31.4153C50.4511 31.2372 50.1543 31.1481 49.7686 31.1481H48.7004C48.6114 31.1481 48.5521 31.1778 48.4927 31.2372C48.4334 31.2966 48.4037 31.356 48.4037 31.445C48.4037 31.8014 48.4037 32.1874 48.374 32.6329C48.374 33.0783 48.3444 33.5534 48.3444 34.0583C48.3444 34.1473 48.374 34.2067 48.4334 34.2661C48.4927 34.3255 48.5521 34.3552 48.6411 34.3552H49.7686V34.3255Z" fill="#FF5817"/>
<path d="M59.5275 39.5525C59.5275 39.6416 59.4978 39.701 59.4385 39.7604C59.3792 39.8198 59.3198 39.8495 59.2308 39.8495H57.5395C57.4505 39.8495 57.3911 39.8198 57.3318 39.7604C57.2725 39.701 57.2725 39.6416 57.2725 39.5525C57.2725 39.2259 57.3021 38.6617 57.3021 37.8599C57.3318 37.0284 57.3318 35.9891 57.3318 34.7418C57.3318 33.4649 57.3318 32.4256 57.3021 31.6238C57.2725 30.822 57.2725 30.2281 57.2725 29.9014C57.2725 29.8124 57.3021 29.753 57.3318 29.6936C57.3911 29.6342 57.4505 29.6045 57.5395 29.6045H59.2308C59.3198 29.6045 59.3792 29.6342 59.4385 29.6936C59.4978 29.753 59.5275 29.8124 59.5275 29.9014C59.5275 30.2281 59.4978 30.7923 59.4682 31.6238C59.4385 32.4256 59.4385 33.4649 59.4385 34.7418C59.4385 36.0187 59.4385 37.0581 59.4682 37.8599C59.4978 38.6617 59.4978 39.2259 59.5275 39.5525Z" fill="#FF5817"/>
<path d="M69.7924 39.8489C69.6144 39.8489 69.5254 39.7598 69.4957 39.6113C69.466 39.4629 69.4364 39.2847 69.377 39.0174C69.3177 38.7502 69.2583 38.4532 69.199 38.0672C69.1693 37.9187 69.0803 37.8296 68.9319 37.8296H66.2912C66.1428 37.8296 66.0241 37.9187 65.9944 38.0672C65.9351 38.4532 65.8758 38.7502 65.8164 39.0174C65.7571 39.255 65.7274 39.4629 65.6977 39.6113C65.6681 39.7598 65.579 39.8489 65.4307 39.8489H63.7097C63.6207 39.8489 63.5317 39.8192 63.4724 39.7301C63.413 39.641 63.3833 39.5816 63.413 39.4926C63.502 39.1362 63.6207 38.572 63.7987 37.7702C63.9768 36.9684 64.2141 35.9588 64.4812 34.7116C64.7779 33.405 64.9856 32.3359 65.134 31.5044C65.2823 30.673 65.401 30.1087 65.4307 29.8118C65.4604 29.6633 65.5494 29.5742 65.6977 29.5742H69.466C69.6441 29.5742 69.7331 29.6633 69.7628 29.8118C69.8221 30.1087 69.9111 30.673 70.0595 31.5044C70.2078 32.3359 70.4452 33.405 70.7122 34.7116C70.9793 35.9588 71.2167 36.9684 71.3947 37.7702C71.5727 38.572 71.7211 39.1362 71.8101 39.4926C71.8398 39.5816 71.8101 39.6707 71.7508 39.7301C71.6617 39.7895 71.6024 39.8489 71.5134 39.8489H69.7924ZM66.7362 36.2854H68.5165C68.6056 36.2854 68.6946 36.2557 68.7242 36.1963C68.7836 36.1369 68.8133 36.0479 68.7836 35.9588C68.7242 35.7509 68.6946 35.5727 68.6649 35.3649C68.6056 35.157 68.5759 34.9491 68.5165 34.7413C68.3682 34.0583 68.2198 33.4346 68.1308 32.8704C68.0121 32.3062 67.8934 31.8014 67.8044 31.4153C67.7747 31.3263 67.7154 31.2669 67.6264 31.2669C67.5077 31.2669 67.4484 31.3263 67.4187 31.4153C67.3297 31.8311 67.211 32.3062 67.0923 32.8704C66.9736 33.4346 66.8253 34.0583 66.6769 34.7413C66.6176 34.9491 66.5879 35.157 66.5285 35.3649C66.4692 35.5727 66.4395 35.7806 66.4099 35.9588C66.3802 36.0479 66.4099 36.1369 66.4692 36.1963C66.5582 36.2557 66.6176 36.2854 66.7362 36.2854Z" fill="#FF5817"/>
<path d="M82.8507 32.7819C82.8507 33.0789 82.8507 33.3461 82.821 33.6134C82.7914 33.8807 82.7914 34.237 82.7914 34.7121C82.7914 35.0388 82.7914 35.3357 82.821 35.5436C82.8507 35.7812 82.8507 35.9594 82.8507 36.1672C82.8507 36.3454 82.8804 36.5533 82.8804 36.7611C82.8804 37.3847 82.7617 37.9193 82.5243 38.3944C82.2869 38.8398 81.9309 39.1962 81.3968 39.4634C80.8627 39.701 80.1506 39.8495 79.2901 39.8495H75.9965C75.9075 39.8495 75.8482 39.8198 75.7888 39.7604C75.7295 39.701 75.7295 39.6416 75.7295 39.5525C75.7295 39.2259 75.7592 38.6617 75.7592 37.8599C75.7888 37.0284 75.7888 35.9891 75.7888 34.7418C75.7888 33.4649 75.7888 32.4256 75.7592 31.6238C75.7295 30.822 75.7295 30.2281 75.7295 29.9014C75.7295 29.8124 75.7592 29.753 75.7888 29.6936C75.8482 29.6342 75.9075 29.6045 75.9965 29.6045H79.2604C80.1506 29.6045 80.833 29.753 81.3671 30.0499C81.8715 30.3469 82.2573 30.7329 82.465 31.2081C82.7023 31.6832 82.821 32.188 82.821 32.6928C82.8507 32.7225 82.8507 32.7522 82.8507 32.7819ZM79.2308 38.2756C79.6165 38.2756 79.9132 38.1865 80.0912 38.038C80.2693 37.8896 80.388 37.6817 80.4473 37.4738C80.5066 37.266 80.5066 36.9987 80.5066 36.7611V32.7819C80.5066 32.6928 80.5066 32.5741 80.477 32.3959C80.477 32.2177 80.4176 32.0098 80.3583 31.8317C80.2989 31.6238 80.1506 31.4753 80.0022 31.3268C79.8242 31.1784 79.5868 31.119 79.2901 31.119H78.2516C78.1626 31.119 78.1032 31.1487 78.0439 31.2081C77.9845 31.2674 77.9549 31.3268 77.9549 31.4159C77.9549 31.8317 77.9252 32.3068 77.9252 32.871C77.9252 33.4055 77.9252 34.0291 77.9252 34.7121C77.9252 35.3951 77.9252 35.9891 77.9252 36.5533C77.9252 37.1175 77.9252 37.5926 77.9549 38.0084C77.9549 38.0974 77.9845 38.1568 78.0439 38.2162C78.1032 38.2756 78.1626 38.3053 78.2516 38.3053H79.2308V38.2756Z" fill="#FF5817"/>
<path d="M89.0993 32.3957C89.0993 32.6927 89.218 32.9303 89.4554 33.1381C89.6928 33.3163 89.9895 33.4648 90.3752 33.6133C90.7609 33.732 91.1467 33.8805 91.5621 34.029C91.9775 34.1775 92.3929 34.3557 92.7489 34.5932C93.1347 34.8308 93.4314 35.1277 93.6688 35.5138C93.9061 35.8998 94.0248 36.4047 94.0248 36.9986C94.0248 37.6222 93.9061 38.1567 93.6688 38.6021C93.4314 39.0476 93.0753 39.3742 92.5412 39.6118C92.0368 39.8493 91.3247 39.9681 90.4346 39.9681C89.6037 39.9681 88.9213 39.8196 88.3872 39.5524C87.8531 39.2851 87.4674 38.9288 87.2003 38.4833C86.9333 38.0379 86.7849 37.5628 86.7553 37.058C86.7553 36.9689 86.7553 36.9095 86.8146 36.8501C86.8739 36.7907 86.9333 36.761 87.0223 36.761H88.7433C88.9213 36.761 89.0103 36.8501 89.0103 37.0283C89.04 37.2064 89.0697 37.4143 89.1587 37.6222C89.2477 37.83 89.3664 38.0082 89.5741 38.1864C89.7521 38.3349 90.0191 38.424 90.3455 38.424C90.7313 38.424 91.028 38.3646 91.206 38.2161C91.384 38.0973 91.5027 37.9191 91.5621 37.6816C91.6214 37.444 91.6511 37.2361 91.6511 36.9689C91.6511 36.6719 91.5324 36.4047 91.295 36.2265C91.0577 36.0483 90.7609 35.8701 90.3752 35.7513C89.9895 35.6029 89.6037 35.4841 89.1883 35.3356C88.7729 35.1871 88.3575 35.009 88.0015 34.7714C87.6157 34.5338 87.319 34.2369 87.0816 33.8508C86.8443 33.4648 86.7256 32.96 86.7256 32.366C86.7256 31.7424 86.8443 31.2079 87.0816 30.7625C87.319 30.317 87.6751 29.9607 88.2092 29.7528C88.7136 29.5153 89.4257 29.3965 90.3159 29.3965C91.1467 29.3965 91.7994 29.545 92.3039 29.8122C92.8083 30.0795 93.194 30.4358 93.4314 30.8813C93.6688 31.3267 93.8171 31.8018 93.8468 32.277C93.8468 32.366 93.8171 32.4254 93.7578 32.4848C93.6984 32.5442 93.6391 32.5739 93.5501 32.5739H91.8885C91.7104 32.5739 91.6214 32.4848 91.5917 32.3067C91.5917 32.1285 91.5324 31.9503 91.4731 31.7127C91.4137 31.5049 91.295 31.297 91.117 31.1485C90.939 30.9704 90.7016 30.911 90.3752 30.911C89.9895 30.911 89.6928 30.9704 89.5147 31.1188C89.3367 31.2376 89.218 31.4158 89.1587 31.6534C89.0993 31.9503 89.0993 32.1582 89.0993 32.3957Z" fill="#FF5817"/>
</g>
<defs>
<clipPath id="clip0_537_2277">
<rect width="94" height="40" fill="white"/>
</clipPath>
</defs>
</svg>
